<svg xmlns="http://www.w3.org/2000/svg" viewBox="0 0 114.32 103.82"><defs><style>.cls-1{isolation:isolate;}.cls-2{opacity:0.2;}.cls-3,.cls-9{mix-blend-mode:multiply;}.cls-4,.cls-9{fill:#e3e3e3;}.cls-5{fill:#b32b20;}.cls-6{fill:#d93527;}.cls-7{fill:#f26155;}.cls-8{fill:#a1271d;}.cls-10{fill:#f5f5f5;}.cls-11{fill:#435266;}.cls-12{fill:#fff;}.cls-13{fill:#fbfbfb;}</style></defs><title>Asset 13</title><g class="cls-1"><g id="Layer_2" data-name="Layer 2"><g id="Layer_1-2" data-name="Layer 1"><g class="cls-2"><rect x="44" y="26.8" width="33.33" height="57.22" transform="translate(116.07 -5.25) rotate(90)"/><polygon points="32.05 38.74 22.73 29.42 98.59 29.42 89.27 38.74 32.05 38.74"/><polygon points="22.73 29.42 12.73 19.42 108.59 19.42 98.59 29.42 22.73 29.42"/><polygon points="89.27 38.74 89.27 72.08 98.59 81.39 98.59 29.42 89.27 38.74"/><polygon points="98.59 29.42 108.59 19.42 108.59 91.39 98.59 81.39 98.59 29.42"/><polygon points="89.27 72.08 98.59 81.39 22.73 81.39 32.05 72.08 89.27 72.08"/><polygon points="98.59 81.39 108.59 91.39 12.73 91.39 22.73 81.39 98.59 81.39"/><polygon points="32.05 72.08 32.05 38.74 22.73 29.42 22.73 81.39 32.05 72.08"/><polygon points="22.73 81.39 12.73 91.39 12.73 19.42 22.73 29.42 22.73 81.39"/><polygon class="cls-3" points="87.12 53.04 87.12 44.84 85.36 43.09 76.37 44.84 74.61 51.28 76.37 53.04 87.12 53.04"/><rect x="74.61" y="43.09" width="10.75" height="8.2"/><circle cx="81.06" cy="47.19" r="2.95"/><path d="M81.06,48.21a1,1,0,1,1,1-1A1,1,0,0,1,81.06,48.21Z"/><circle cx="81.06" cy="47.19" r="0.52"/><path d="M81.28,47.92a1.72,1.72,0,0,1,.8,1.1c.07.68-1.3,1-2.09.35a3.49,3.49,0,0,0,.78-1.45Z"/><path d="M81.58,46.63a1.72,1.72,0,0,1,.55-1.25c.55-.4,1.5.64,1.35,1.64a3.56,3.56,0,0,0-1.65,0Z"/><path d="M80.31,47a1.71,1.71,0,0,1-1.35.15c-.63-.28-.2-1.62.74-2a3.62,3.62,0,0,0,.86,1.41Z"/><path d="M75.75,47.57V49a.23.23,0,0,1-.23.23h0a.23.23,0,0,1-.23-.23V47.57a.23.23,0,0,1,.23-.24h0A.23.23,0,0,1,75.75,47.57Z"/><path d="M75.75,45.41v1.4a.23.23,0,0,1-.23.23h0a.23.23,0,0,1-.23-.23v-1.4a.23.23,0,0,1,.23-.23h0A.23.23,0,0,1,75.75,45.41Z"/><path d="M76.61,47.57V49a.23.23,0,0,1-.24.23h0a.23.23,0,0,1-.23-.23V47.57a.23.23,0,0,1,.23-.24h0A.24.24,0,0,1,76.61,47.57Z"/><path d="M76.61,45.41v1.4a.23.23,0,0,1-.24.23h0a.23.23,0,0,1-.23-.23v-1.4a.23.23,0,0,1,.23-.23h0A.23.23,0,0,1,76.61,45.41Z"/><path d="M77.46,47.57V49a.23.23,0,0,1-.23.23h0A.23.23,0,0,1,77,49V47.57a.24.24,0,0,1,.24-.24h0A.24.24,0,0,1,77.46,47.57Z"/><path d="M77.46,45.41v1.4a.23.23,0,0,1-.23.23h0a.23.23,0,0,1-.24-.23v-1.4a.23.23,0,0,1,.24-.23h0A.23.23,0,0,1,77.46,45.41Z"/><polygon class="cls-3" points="48.32 70.13 48.32 61.94 46.56 60.18 37.57 61.94 35.81 68.38 37.57 70.13 48.32 70.13"/><rect x="35.81" y="60.18" width="10.75" height="8.2"/><circle cx="42.26" cy="64.28" r="2.95"/><circle cx="42.26" cy="64.28" r="1.02"/><circle cx="42.26" cy="64.28" r="0.52"/><path d="M42.48,65a1.75,1.75,0,0,1,.8,1.1c.07.68-1.3,1-2.09.35A3.57,3.57,0,0,0,42,65Z"/><path d="M42.78,63.72a1.69,1.69,0,0,1,.55-1.24c.55-.41,1.5.64,1.35,1.63a3.5,3.5,0,0,0-1.65,0Z"/><path d="M41.51,64.11a1.73,1.73,0,0,1-1.35.14c-.63-.27-.2-1.62.74-2a3.59,3.59,0,0,0,.87,1.41Z"/><path d="M37,64.66v1.39a.23.23,0,0,1-.23.23h0a.23.23,0,0,1-.23-.23V64.66a.23.23,0,0,1,.23-.23h0A.23.23,0,0,1,37,64.66Z"/><path d="M37,62.51V63.9a.23.23,0,0,1-.23.23h0a.23.23,0,0,1-.23-.23V62.51a.23.23,0,0,1,.23-.24h0A.23.23,0,0,1,37,62.51Z"/><path d="M37.81,64.66v1.39a.23.23,0,0,1-.24.23h0a.23.23,0,0,1-.23-.23V64.66a.23.23,0,0,1,.23-.23h0A.23.23,0,0,1,37.81,64.66Z"/><path d="M37.81,62.51V63.9a.23.23,0,0,1-.24.23h0a.23.23,0,0,1-.23-.23V62.51a.24.24,0,0,1,.23-.24h0A.24.24,0,0,1,37.81,62.51Z"/><path d="M38.66,64.66v1.39a.23.23,0,0,1-.23.23h0a.23.23,0,0,1-.24-.23V64.66a.23.23,0,0,1,.24-.23h0A.23.23,0,0,1,38.66,64.66Z"/><path d="M38.66,62.51V63.9a.23.23,0,0,1-.23.23h0a.23.23,0,0,1-.24-.23V62.51a.24.24,0,0,1,.24-.24h0A.23.23,0,0,1,38.66,62.51Z"/><rect x="54.45" y="-1.09" width="12.42" height="28.61" transform="translate(73.87 -47.45) rotate(90)"/><rect x="54.45" y="83.3" width="12.42" height="28.61" transform="translate(158.27 36.94) rotate(90)"/><polygon points="99.4 55.41 108.59 43.62 114.33 43.62 114.33 55.41 99.4 55.41"/><polygon points="99.4 55.41 108.59 67.19 114.33 67.19 114.33 55.41 99.4 55.41"/><polygon points="21.92 55.41 12.73 43.62 7 43.62 7 55.41 21.92 55.41"/><polygon points="21.92 55.41 12.73 67.19 7 67.19 7 55.41 21.92 55.41"/><rect x="79.15" y="67.64" width="1.48" height="1.48"/><rect x="81.51" y="67.64" width="1.48" height="1.48"/><rect x="83.88" y="67.64" width="1.48" height="1.48"/><polygon class="cls-3" points="38.35 60.23 35.81 57.69 38.35 45.62 70.3 43.09 72.83 45.62 72.83 60.23 38.35 60.23"/><rect x="35.81" y="43.09" width="34.49" height="14.61"/><rect x="37.19" y="44.47" width="31.73" height="11.85"/></g><rect class="cls-4" x="37" y="19.8" width="33.33" height="57.22" transform="translate(102.07 -5.25) rotate(90)"/><polygon class="cls-5" points="25.05 31.74 15.73 22.42 91.59 22.42 82.27 31.74 25.05 31.74"/><polygon class="cls-6" points="15.73 22.42 5.73 12.42 101.59 12.42 91.59 22.42 15.73 22.42"/><polygon class="cls-7" points="82.27 31.74 82.27 65.08 91.59 74.39 91.59 22.42 82.27 31.74"/><polygon class="cls-8" points="91.59 22.42 101.59 12.42 101.59 84.39 91.59 74.39 91.59 22.42"/><polygon class="cls-6" points="82.27 65.08 91.59 74.39 15.73 74.39 25.05 65.08 82.27 65.08"/><polygon class="cls-5" points="91.59 74.39 101.59 84.39 5.73 84.39 15.73 74.39 91.59 74.39"/><polygon class="cls-8" points="25.05 65.08 25.05 31.74 15.73 22.42 15.73 74.39 25.05 65.08"/><polygon class="cls-7" points="15.73 74.39 5.73 84.39 5.73 12.42 15.73 22.42 15.73 74.39"/><polygon class="cls-9" points="80.12 46.04 80.12 37.84 78.36 36.09 69.37 37.84 67.61 44.28 69.37 46.04 80.12 46.04"/><rect class="cls-10" x="67.61" y="36.09" width="10.75" height="8.2"/><circle class="cls-11" cx="74.06" cy="40.19" r="2.95"/><path class="cls-10" d="M74.06,41.21a1,1,0,1,1,1-1A1,1,0,0,1,74.06,41.21Z"/><circle class="cls-12" cx="74.06" cy="40.19" r="0.52"/><path class="cls-10" d="M74.28,40.92a1.72,1.72,0,0,1,.8,1.1c.07.68-1.3,1-2.09.35a3.49,3.49,0,0,0,.78-1.45Z"/><path class="cls-10" d="M74.58,39.63a1.72,1.72,0,0,1,.55-1.25c.55-.4,1.5.64,1.35,1.64a3.56,3.56,0,0,0-1.65,0Z"/><path class="cls-10" d="M73.31,40a1.71,1.71,0,0,1-1.35.15c-.63-.28-.2-1.62.74-2a3.62,3.62,0,0,0,.86,1.41Z"/><path class="cls-11" d="M68.75,40.57V42a.23.23,0,0,1-.23.23h0a.23.23,0,0,1-.23-.23V40.57a.23.23,0,0,1,.23-.24h0A.23.23,0,0,1,68.75,40.57Z"/><path class="cls-11" d="M68.75,38.41v1.4a.23.23,0,0,1-.23.23h0a.23.23,0,0,1-.23-.23v-1.4a.23.23,0,0,1,.23-.23h0A.23.23,0,0,1,68.75,38.41Z"/><path class="cls-11" d="M69.61,40.57V42a.23.23,0,0,1-.24.23h0a.23.23,0,0,1-.23-.23V40.57a.23.23,0,0,1,.23-.24h0A.24.24,0,0,1,69.61,40.57Z"/><path class="cls-11" d="M69.61,38.41v1.4a.23.23,0,0,1-.24.23h0a.23.23,0,0,1-.23-.23v-1.4a.23.23,0,0,1,.23-.23h0A.23.23,0,0,1,69.61,38.41Z"/><path class="cls-11" d="M70.46,40.57V42a.23.23,0,0,1-.23.23h0A.23.23,0,0,1,70,42V40.57a.24.24,0,0,1,.24-.24h0A.24.24,0,0,1,70.46,40.57Z"/><path class="cls-11" d="M70.46,38.41v1.4a.23.23,0,0,1-.23.23h0a.23.23,0,0,1-.24-.23v-1.4a.23.23,0,0,1,.24-.23h0A.23.23,0,0,1,70.46,38.41Z"/><polygon class="cls-9" points="41.32 63.13 41.32 54.94 39.56 53.18 30.57 54.94 28.81 61.38 30.57 63.13 41.32 63.13"/><rect class="cls-10" x="28.81" y="53.18" width="10.75" height="8.2"/><circle class="cls-11" cx="35.26" cy="57.28" r="2.95"/><circle class="cls-10" cx="35.26" cy="57.28" r="1.02"/><circle class="cls-12" cx="35.26" cy="57.28" r="0.52"/><path class="cls-10" d="M35.48,58a1.75,1.75,0,0,1,.8,1.1c.07.68-1.3,1-2.09.35A3.57,3.57,0,0,0,35,58Z"/><path class="cls-10" d="M35.78,56.72a1.69,1.69,0,0,1,.55-1.24c.55-.41,1.5.64,1.35,1.63a3.5,3.5,0,0,0-1.65,0Z"/><path class="cls-10" d="M34.51,57.11a1.73,1.73,0,0,1-1.35.14c-.63-.27-.2-1.62.74-2a3.59,3.59,0,0,0,.87,1.41Z"/><path class="cls-11" d="M30,57.66v1.39a.23.23,0,0,1-.23.23h0a.23.23,0,0,1-.23-.23V57.66a.23.23,0,0,1,.23-.23h0A.23.23,0,0,1,30,57.66Z"/><path class="cls-11" d="M30,55.51V56.9a.23.23,0,0,1-.23.23h0a.23.23,0,0,1-.23-.23V55.51a.23.23,0,0,1,.23-.24h0A.23.23,0,0,1,30,55.51Z"/><path class="cls-11" d="M30.81,57.66v1.39a.23.23,0,0,1-.24.23h0a.23.23,0,0,1-.23-.23V57.66a.23.23,0,0,1,.23-.23h0A.23.23,0,0,1,30.81,57.66Z"/><path class="cls-11" d="M30.81,55.51V56.9a.23.23,0,0,1-.24.23h0a.23.23,0,0,1-.23-.23V55.51a.24.24,0,0,1,.23-.24h0A.24.24,0,0,1,30.81,55.51Z"/><path class="cls-11" d="M31.66,57.66v1.39a.23.23,0,0,1-.23.23h0a.23.23,0,0,1-.24-.23V57.66a.23.23,0,0,1,.24-.23h0A.23.23,0,0,1,31.66,57.66Z"/><path class="cls-11" d="M31.66,55.51V56.9a.23.23,0,0,1-.23.23h0a.23.23,0,0,1-.24-.23V55.51a.24.24,0,0,1,.24-.24h0A.23.23,0,0,1,31.66,55.51Z"/><rect class="cls-8" x="47.45" y="-8.09" width="12.42" height="28.61" transform="translate(59.87 -47.45) rotate(90)"/><rect class="cls-8" x="47.45" y="76.3" width="12.42" height="28.61" transform="translate(144.27 36.94) rotate(90)"/><polygon class="cls-6" points="92.4 48.41 101.59 36.62 107.33 36.62 107.33 48.41 92.4 48.41"/><polygon class="cls-5" points="92.4 48.41 101.59 60.19 107.33 60.19 107.33 48.41 92.4 48.41"/><polygon class="cls-6" points="14.92 48.41 5.73 36.62 0 36.62 0 48.41 14.92 48.41"/><polygon class="cls-5" points="14.92 48.41 5.73 60.19 0 60.19 0 48.41 14.92 48.41"/><rect class="cls-11" x="72.15" y="60.64" width="1.48" height="1.48"/><rect class="cls-11" x="74.51" y="60.64" width="1.48" height="1.48"/><rect class="cls-11" x="76.88" y="60.64" width="1.48" height="1.48"/><polygon class="cls-9" points="31.35 53.23 28.81 50.69 31.35 38.62 63.3 36.09 65.83 38.62 65.83 53.23 31.35 53.23"/><rect class="cls-13" x="28.81" y="36.09" width="34.49" height="14.61"/><rect class="cls-4" x="30.19" y="37.47" width="31.73" height="11.85"/></g></g></g></svg>