<svg xmlns="http://www.w3.org/2000/svg" viewBox="0 0 76.83 76.83"><defs><style>.cls-1{fill:#435266;}.cls-2{fill:#fbfbfb;}</style></defs><title>Asset 6</title><g id="Layer_2" data-name="Layer 2"><g id="Layer_1-2" data-name="Layer 1"><rect class="cls-1" x="22.83" y="38.42" width="31.17" height="38.42"/><path class="cls-2" d="M26,76.83H24.41v-26h0A1.58,1.58,0,0,1,26,52.42Z"/><path class="cls-2" d="M50.84,76.83h1.59v-26h0a1.58,1.58,0,0,0-1.58,1.58Z"/><rect class="cls-1" x="22.83" width="31.17" height="38.42"/><path class="cls-2" d="M24.41,26h0V0H26V24.41A1.58,1.58,0,0,1,24.41,26Z"/><path class="cls-2" d="M52.42,26h0V0H50.84V24.41A1.58,1.58,0,0,0,52.42,26Z"/><rect class="cls-1" y="22.83" width="24.41" height="31.17"/><rect class="cls-2" y="24.41" width="24.41" height="1.58"/><rect class="cls-2" y="50.84" width="24.41" height="1.58"/><rect class="cls-1" x="52.43" y="22.83" width="24.41" height="31.17"/><rect class="cls-2" x="52.43" y="24.41" width="24.41" height="1.58"/><rect class="cls-2" x="52.43" y="50.84" width="24.41" height="1.58"/><rect class="cls-2" x="2.9" y="28.16" width="19.93" height="2.91"/><rect class="cls-2" x="2.9" y="34.03" width="19.93" height="2.91"/><rect class="cls-2" x="2.9" y="39.9" width="19.93" height="2.91"/><rect class="cls-2" x="2.9" y="45.77" width="19.93" height="2.91"/><rect class="cls-2" x="54" y="28.16" width="19.93" height="2.91"/><rect class="cls-2" x="54" y="34.03" width="19.93" height="2.91"/><rect class="cls-2" x="54" y="39.9" width="19.93" height="2.91"/><rect class="cls-2" x="54" y="45.77" width="19.93" height="2.91"/><rect class="cls-2" x="28.16" y="54" width="2.91" height="19.93"/><rect class="cls-2" x="34.03" y="54" width="2.91" height="19.93"/><rect class="cls-2" x="39.9" y="54" width="2.91" height="19.93"/><rect class="cls-2" x="45.77" y="54" width="2.91" height="19.93"/><rect class="cls-2" x="28.16" y="2.9" width="2.91" height="19.93"/><rect class="cls-2" x="34.03" y="2.9" width="2.91" height="19.93"/><rect class="cls-2" x="39.9" y="2.9" width="2.91" height="19.93"/><rect class="cls-2" x="45.77" y="2.9" width="2.91" height="19.93"/></g></g></svg>