<svg width="28" height="25" viewBox="0 0 28 25" fill="none" xmlns="http://www.w3.org/2000/svg">
<path d="M6.3 25H1.4C0.63 25 0 24.375 0 23.6111V9.72222C0 8.95833 0.63 8.33333 1.4 8.33333H6.3C7.07 8.33333 7.7 8.95833 7.7 9.72222V23.6111C7.7 24.375 7.07 25 6.3 25ZM16.45 0H11.55C10.78 0 10.15 0.625 10.15 1.38889V23.6111C10.15 24.375 10.78 25 11.55 25H16.45C17.22 25 17.85 24.375 17.85 23.6111V1.38889C17.85 0.625 17.22 0 16.45 0ZM26.6 11.1111H21.7C20.93 11.1111 20.3 11.7361 20.3 12.5V23.6111C20.3 24.375 20.93 25 21.7 25H26.6C27.37 25 28 24.375 28 23.6111V12.5C28 11.7361 27.37 11.1111 26.6 11.1111Z" fill="#B3B3B3"/>
</svg>
