<svg xmlns="http://www.w3.org/2000/svg" viewBox="0 0 150.08 89.26"><defs><style>.cls-1{isolation:isolate;}.cls-2{fill:#d93527;}.cls-3{fill:#fd0;}.cls-4,.cls-9{fill:#ebebeb;}.cls-5,.cls-8{fill:#dbdbdb;}.cls-6,.cls-7{fill:#b8b8b8;}.cls-11,.cls-19,.cls-7,.cls-8,.cls-9{mix-blend-mode:multiply;}.cls-10{opacity:0.2;}.cls-12{fill:#fbfbfb;}.cls-13,.cls-19{fill:#e3e3e3;}.cls-14{fill:#a1271d;}.cls-15{fill:#f26155;}.cls-16{fill:#b32b20;}.cls-17{fill:#2bd4ed;}.cls-18{fill:#435266;}.cls-20{fill:#f5f5f5;}.cls-21{fill:#fff091;}</style></defs><title>Asset 11</title><g class="cls-1"><g id="Layer_2" data-name="Layer 2"><g id="Layer_1-2" data-name="Layer 1"><rect class="cls-2" x="66.01" y="66.41" width="11.06" height="15.86"/><rect class="cls-3" x="66.72" y="66.41" width="0.69" height="15.86"/><rect class="cls-3" x="75.66" y="66.41" width="0.69" height="15.86"/><rect class="cls-4" x="55.41" y="57.56" width="32.25" height="2.95"/><rect class="cls-5" x="59.53" y="60.51" width="24.02" height="2.95"/><rect class="cls-6" x="63.11" y="63.46" width="16.86" height="2.95"/><rect class="cls-2" x="66.01" y="63.46" width="11.06" height="2.95"/><rect class="cls-3" x="66.72" y="63.46" width="0.69" height="2.95"/><rect class="cls-3" x="75.66" y="63.46" width="0.69" height="2.95"/><rect class="cls-7" x="66.01" y="63.46" width="11.06" height="2.95"/><rect class="cls-2" x="66.01" y="60.51" width="11.06" height="2.95"/><rect class="cls-3" x="66.72" y="60.51" width="0.69" height="2.95"/><rect class="cls-3" x="75.66" y="60.51" width="0.69" height="2.95"/><rect class="cls-8" x="66.01" y="60.51" width="11.06" height="2.95"/><rect class="cls-2" x="66.01" y="57.56" width="11.06" height="2.95"/><rect class="cls-3" x="66.72" y="57.56" width="0.69" height="2.95"/><rect class="cls-3" x="75.66" y="57.56" width="0.69" height="2.95"/><rect class="cls-9" x="66.01" y="57.56" width="11.06" height="2.95"/><rect class="cls-3" x="59.53" y="57.56" width="24.02" height="0.82"/><g class="cls-10"><rect x="26.44" y="14.96" width="104.2" height="49.6"/><rect x="26.44" y="17.13" width="104.2" height="45.27"/><circle cx="78.54" cy="39.76" r="21.55"/><rect x="111.9" y="7" width="38.18" height="82.26"/><rect x="111.9" y="7" width="19.09" height="82.26"/><polygon points="150.08 7 130.99 26.25 111.9 7 150.08 7"/><polygon points="150.08 89.26 130.99 70.01 111.9 89.26 150.08 89.26"/><rect x="7" y="7" width="38.18" height="82.26"/><rect x="7" y="7" width="19.09" height="82.26"/><polygon points="45.18 7 26.09 26.25 7 7 45.18 7"/><polygon points="45.18 89.26 26.09 70.01 7 89.26 45.18 89.26"/><circle cx="78.54" cy="39.76" r="19.81"/><path d="M84.07,39.76a5.53,5.53,0,1,1-5.53-5.52A5.53,5.53,0,0,1,84.07,39.76Z"/><rect x="79.11" y="38.94" width="21.41" height="1.65"/><rect x="75.81" y="30.97" width="21.41" height="1.65" transform="translate(2.86 70.49) rotate(-45)"/><rect x="77.72" y="17.78" width="1.65" height="21.41"/><rect x="69.74" y="21.08" width="1.65" height="21.41" transform="translate(-1.81 59.21) rotate(-45)"/><rect x="56.56" y="38.94" width="21.41" height="1.65"/><rect x="59.86" y="46.91" width="21.41" height="1.65" transform="translate(-13.09 63.88) rotate(-45)"/><rect x="77.72" y="40.33" width="1.65" height="21.41"/><rect x="85.69" y="37.03" width="1.65" height="21.41" transform="translate(-8.42 75.16) rotate(-45)"/><circle cx="78.54" cy="39.76" r="1.94"/><path d="M79.45,39.76a.91.91,0,1,1-.91-.91A.91.91,0,0,1,79.45,39.76Z"/><path class="cls-11" d="M100.05,38.94a21.48,21.48,0,0,0-5.71-13.81l.33-.33L93.5,23.64l-.33.33c-.15-.14-.32-.27-.47-.4a22.58,22.58,0,0,1,2.32,9c.5,11.11-9.81,20.57-20.57,20.57a20.1,20.1,0,0,1-17.06-9.46,21.47,21.47,0,0,0,5.36,10.71l-.34.33,1.17,1.17.33-.33a21.43,21.43,0,0,0,13.81,5.71v.48h1.65v-.48a21.42,21.42,0,0,0,13.8-5.71l.33.33,1.17-1.17-.33-.33a21.45,21.45,0,0,0,5.71-13.8h.47V38.94Z"/><polygon class="cls-11" points="54.65 32.17 54.65 20.91 51.61 17.86 48.64 29.13 51.68 32.17 54.65 32.17"/><rect x="48.64" y="17.86" width="2.97" height="11.26"/><rect x="49.65" y="18.62" width="0.94" height="0.94"/><rect x="49.65" y="20.31" width="0.94" height="0.94"/><rect x="49.65" y="21.99" width="0.94" height="0.94"/><polygon class="cls-11" points="112.28 32.17 112.28 20.91 109.24 17.86 106.27 29.13 109.31 32.17 112.28 32.17"/><rect x="106.27" y="17.86" width="2.97" height="11.26"/><rect x="107.28" y="18.62" width="0.94" height="0.94"/><rect x="107.28" y="20.31" width="0.94" height="0.94"/><rect x="107.28" y="21.99" width="0.94" height="0.94"/><rect x="57.9" y="12.8" width="1.43" height="4.33"/><rect x="63.99" y="12.8" width="1.43" height="4.33"/><rect x="59.33" y="13.43" width="4.66" height="0.68"/><rect x="97.4" y="12.8" width="1.43" height="4.33"/><rect x="91.31" y="12.8" width="1.43" height="4.33"/><rect x="92.74" y="13.43" width="4.66" height="0.68"/><rect x="48.64" y="58.83" width="1.48" height="1.48"/><rect x="51" y="58.83" width="1.48" height="1.48"/><rect x="53.36" y="58.83" width="1.48" height="1.48"/><rect x="106.6" y="58.83" width="1.48" height="1.48"/><rect x="104.24" y="58.83" width="1.48" height="1.48"/><rect x="101.88" y="58.83" width="1.48" height="1.48"/></g><rect class="cls-12" x="19.44" y="7.96" width="104.2" height="49.6"/><rect class="cls-13" x="19.44" y="10.13" width="104.2" height="45.27"/><circle class="cls-12" cx="71.54" cy="32.76" r="21.55"/><rect class="cls-14" x="104.9" width="38.18" height="82.26"/><rect class="cls-15" x="104.9" width="19.09" height="82.26"/><polygon class="cls-2" points="143.08 0 123.99 19.25 104.9 0 143.08 0"/><polygon class="cls-16" points="143.08 82.26 123.99 63.01 104.9 82.26 143.08 82.26"/><rect class="cls-14" width="38.18" height="82.26"/><rect class="cls-15" width="19.09" height="82.26"/><polygon class="cls-2" points="38.18 0 19.09 19.25 0 0 38.18 0"/><polygon class="cls-16" points="38.18 82.26 19.09 63.01 0 82.26 38.18 82.26"/><circle class="cls-17" cx="71.54" cy="32.76" r="19.81"/><path class="cls-12" d="M77.07,32.76a5.53,5.53,0,1,1-5.53-5.52A5.53,5.53,0,0,1,77.07,32.76Z"/><rect class="cls-12" x="72.11" y="31.94" width="21.41" height="1.65"/><rect class="cls-12" x="68.81" y="23.97" width="21.41" height="1.65" transform="translate(5.76 63.49) rotate(-45)"/><rect class="cls-12" x="70.72" y="10.78" width="1.65" height="21.41"/><rect class="cls-12" x="62.74" y="14.08" width="1.65" height="21.41" transform="translate(1.09 52.21) rotate(-45)"/><rect class="cls-12" x="49.56" y="31.94" width="21.41" height="1.65"/><rect class="cls-12" x="52.86" y="39.91" width="21.41" height="1.65" transform="translate(-10.19 56.88) rotate(-45)"/><rect class="cls-12" x="70.72" y="33.33" width="1.65" height="21.41"/><rect class="cls-12" x="78.69" y="30.03" width="1.65" height="21.41" transform="translate(-5.52 68.16) rotate(-45)"/><circle class="cls-18" cx="71.54" cy="32.76" r="1.94"/><path class="cls-3" d="M72.45,32.76a.91.91,0,1,1-.91-.91A.91.91,0,0,1,72.45,32.76Z"/><path class="cls-19" d="M93.05,31.94a21.48,21.48,0,0,0-5.71-13.81l.33-.33L86.5,16.64l-.33.33c-.15-.14-.32-.27-.47-.4a22.58,22.58,0,0,1,2.32,9c.5,11.11-9.81,20.57-20.57,20.57a20.1,20.1,0,0,1-17.06-9.46,21.47,21.47,0,0,0,5.36,10.71l-.34.33,1.17,1.17.33-.33a21.43,21.43,0,0,0,13.81,5.71v.48h1.65v-.48a21.42,21.42,0,0,0,13.8-5.71l.33.33,1.17-1.17-.33-.33a21.45,21.45,0,0,0,5.71-13.8h.47V31.94Z"/><polygon class="cls-19" points="47.65 25.17 47.65 13.91 44.61 10.86 41.64 22.13 44.68 25.17 47.65 25.17"/><rect class="cls-20" x="41.64" y="10.86" width="2.97" height="11.26"/><rect class="cls-18" x="42.65" y="11.62" width="0.94" height="0.94"/><rect class="cls-18" x="42.65" y="13.31" width="0.94" height="0.94"/><rect class="cls-18" x="42.65" y="14.99" width="0.94" height="0.94"/><polygon class="cls-19" points="105.28 25.17 105.28 13.91 102.24 10.86 99.27 22.13 102.31 25.17 105.28 25.17"/><rect class="cls-20" x="99.27" y="10.86" width="2.97" height="11.26"/><rect class="cls-18" x="100.28" y="11.62" width="0.94" height="0.94"/><rect class="cls-18" x="100.28" y="13.31" width="0.94" height="0.94"/><rect class="cls-18" x="100.28" y="14.99" width="0.94" height="0.94"/><rect class="cls-18" x="50.9" y="5.8" width="1.43" height="4.33"/><rect class="cls-18" x="56.99" y="5.8" width="1.43" height="4.33"/><rect class="cls-18" x="52.33" y="6.43" width="4.66" height="0.68"/><rect class="cls-18" x="90.4" y="5.8" width="1.43" height="4.33"/><rect class="cls-18" x="84.31" y="5.8" width="1.43" height="4.33"/><rect class="cls-18" x="85.74" y="6.43" width="4.66" height="0.68"/><rect class="cls-18" x="41.64" y="51.83" width="1.48" height="1.48"/><rect class="cls-18" x="44" y="51.83" width="1.48" height="1.48"/><rect class="cls-18" x="46.36" y="51.83" width="1.48" height="1.48"/><rect class="cls-18" x="99.6" y="51.83" width="1.48" height="1.48"/><rect class="cls-18" x="97.24" y="51.83" width="1.48" height="1.48"/><rect class="cls-18" x="94.88" y="51.83" width="1.48" height="1.48"/><g class="cls-10"><rect x="94.05" y="65.46" width="7.36" height="7.36"/><path class="cls-11" d="M98.57,72.69a2.71,2.71,0,1,1,2.7-2.71A2.72,2.72,0,0,1,98.57,72.69Z"/><path d="M97.73,71.85a2.71,2.71,0,1,1,2.71-2.71A2.71,2.71,0,0,1,97.73,71.85Z"/><path d="M99.94,69.14a2.21,2.21,0,1,1-2.21-2.2A2.21,2.21,0,0,1,99.94,69.14Z"/><path d="M97.08,69.7a1.21,1.21,0,1,1,1.21-1.21A1.21,1.21,0,0,1,97.08,69.7Z"/></g><rect class="cls-12" x="92.05" y="63.46" width="7.36" height="7.36"/><path class="cls-19" d="M96.57,70.69A2.71,2.71,0,1,1,99.27,68,2.72,2.72,0,0,1,96.57,70.69Z"/><path class="cls-18" d="M95.73,69.85a2.71,2.71,0,1,1,2.71-2.71A2.71,2.71,0,0,1,95.73,69.85Z"/><path class="cls-3" d="M97.94,67.14a2.21,2.21,0,1,1-2.21-2.2A2.21,2.21,0,0,1,97.94,67.14Z"/><path class="cls-21" d="M95.08,67.7a1.21,1.21,0,1,1,1.21-1.21A1.21,1.21,0,0,1,95.08,67.7Z"/><g class="cls-10"><rect x="45.67" y="65.46" width="7.36" height="7.36" transform="translate(98.7 138.29) rotate(180)"/><path class="cls-11" d="M50.19,72.69A2.71,2.71,0,1,1,52.9,70,2.72,2.72,0,0,1,50.19,72.69Z"/><path d="M49.35,71.85a2.71,2.71,0,1,1,2.71-2.71A2.7,2.7,0,0,1,49.35,71.85Z"/><circle cx="49.35" cy="69.14" r="2.21"/><path d="M48.7,69.7a1.21,1.21,0,1,1,1.21-1.21A1.21,1.21,0,0,1,48.7,69.7Z"/></g><rect class="cls-12" x="43.67" y="63.46" width="7.36" height="7.36" transform="translate(94.7 134.29) rotate(180)"/><path class="cls-19" d="M48.19,70.69A2.71,2.71,0,1,1,50.9,68,2.72,2.72,0,0,1,48.19,70.69Z"/><path class="cls-18" d="M47.35,69.85a2.71,2.71,0,1,1,2.71-2.71A2.7,2.7,0,0,1,47.35,69.85Z"/><circle class="cls-3" cx="47.35" cy="67.14" r="2.21"/><path class="cls-21" d="M46.7,67.7a1.21,1.21,0,1,1,1.21-1.21A1.21,1.21,0,0,1,46.7,67.7Z"/></g></g></g></svg>