<svg xmlns="http://www.w3.org/2000/svg" viewBox="0 0 44.4 44.85"><defs><style>.cls-1{opacity:0.2;}.cls-2{fill:#fd0;}.cls-3{fill:#754200;}.cls-4{fill:#6dad2b;}.cls-5{fill:#83d134;}</style></defs><title>Asset 1</title><g id="Layer_2" data-name="Layer 2"><g id="Layer_1-2" data-name="Layer 1"><g class="cls-1"><circle cx="24.7" cy="25.15" r="19.7" transform="translate(-5.48 43.35) rotate(-76.6)"/><circle cx="24.7" cy="25.15" r="17.22"/><path d="M18.92,34.12a2.77,2.77,0,1,1-2.76-2.76A2.77,2.77,0,0,1,18.92,34.12Z"/><path d="M15.44,35.17a1.76,1.76,0,1,1,1.76-1.76A1.76,1.76,0,0,1,15.44,35.17Z"/><path d="M28.32,37.63a5.25,5.25,0,1,1-6.2-4.1A5.25,5.25,0,0,1,28.32,37.63Z"/><path d="M23.18,42.28a4.25,4.25,0,1,1,3.31-5A4.26,4.26,0,0,1,23.18,42.28Z"/><path d="M28,33.21a2.12,2.12,0,1,1-1.65,2.5A2.11,2.11,0,0,1,28,33.21Z"/><path d="M27.78,35.83a1.12,1.12,0,1,1-.45-2.2,1.12,1.12,0,0,1,.45,2.2Z"/><path d="M27.1,39.54a3.23,3.23,0,1,1,3.8,2.52A3.23,3.23,0,0,1,27.1,39.54Z"/><path d="M29.86,40.52a2.23,2.23,0,1,1,1.74-2.63A2.23,2.23,0,0,1,29.86,40.52Z"/><path d="M23,9a3.53,3.53,0,1,1-3.53-3.53A3.52,3.52,0,0,1,23,9Z"/><path d="M18.74,10.85a2.53,2.53,0,1,1,2.52-2.53A2.53,2.53,0,0,1,18.74,10.85Z"/><path d="M24.53,12.82a2,2,0,1,1-2-2A2,2,0,0,1,24.53,12.82Z"/><path d="M21.86,13.06a1,1,0,1,1,.95-1A1,1,0,0,1,21.86,13.06Z"/><circle cx="16.86" cy="13.5" r="1.27"/><path d="M16.14,13.06a.28.28,0,0,1-.27-.28.28.28,0,0,1,.55,0A.28.28,0,0,1,16.14,13.06Z"/><path d="M28.93,9.53a2.66,2.66,0,1,1-2.66-2.66A2.66,2.66,0,0,1,28.93,9.53Z"/><path d="M25.56,10.47a1.66,1.66,0,1,1,1.65-1.66A1.66,1.66,0,0,1,25.56,10.47Z"/><path d="M31.44,7.93A2.42,2.42,0,1,1,29,5.51,2.41,2.41,0,0,1,31.44,7.93Z"/><path d="M28.31,8.62a1.41,1.41,0,1,1,1.41-1.41A1.41,1.41,0,0,1,28.31,8.62Z"/><circle cx="29.87" cy="11.97" r="3.82"/><path d="M29.15,14.08A2.83,2.83,0,1,1,32,11.25,2.83,2.83,0,0,1,29.15,14.08Z"/><circle cx="32.75" cy="30.13" r="1.06"/><path d="M32,29.48a.06.06,0,0,1-.06-.06h.12Z"/><path d="M33,34.66a3.17,3.17,0,1,1,3.17,3.16A3.16,3.16,0,0,1,33,34.66Z"/><path d="M35.42,36.11a2.17,2.17,0,1,1,2.17-2.17A2.17,2.17,0,0,1,35.42,36.11Z"/><circle cx="38.86" cy="30.09" r="2.72"/><path d="M38.14,31.09a1.72,1.72,0,1,1,1.72-1.72A1.72,1.72,0,0,1,38.14,31.09Z"/><path d="M37.68,23.47a1.75,1.75,0,1,1,1.74,1.74A1.74,1.74,0,0,1,37.68,23.47Z"/><path d="M38.71,23.49a.74.74,0,1,1,0-1.48.74.74,0,0,1,0,1.48Z"/><path d="M39.42,25.9a2.41,2.41,0,1,1,2.41,2.41A2.41,2.41,0,0,1,39.42,25.9Z"/><path d="M41.12,26.59a1.41,1.41,0,1,1,1.41-1.41A1.41,1.41,0,0,1,41.12,26.59Z"/><path d="M43.55,20.13A1.6,1.6,0,1,1,42,18.54,1.6,1.6,0,0,1,43.55,20.13Z"/><path d="M41.24,20a.6.6,0,1,1,0-1.19.6.6,0,0,1,0,1.19Z"/><path d="M11.34,18.27A1.24,1.24,0,1,1,10.1,17,1.24,1.24,0,0,1,11.34,18.27Z"/><path d="M9.39,17.78a.23.23,0,1,1,.23-.23A.23.23,0,0,1,9.39,17.78Z"/><circle cx="10.48" cy="22.85" r="4.31"/><path d="M9.77,25.43a3.31,3.31,0,1,1,3.3-3.3A3.31,3.31,0,0,1,9.77,25.43Z"/><circle cx="11.89" cy="16.85" r="1.91"/><path d="M13.72,24.83a.91.91,0,1,1,0-1.82.91.91,0,1,1,0,1.82Z"/><path d="M12.52,19.68a1.14,1.14,0,1,0,1.13-1.14A1.14,1.14,0,0,0,12.52,19.68Z"/><path d="M12.94,19.09A.13.13,0,0,1,12.8,19a.14.14,0,0,1,.14-.14.13.13,0,0,1,.13.14A.13.13,0,0,1,12.94,19.09Z"/><circle cx="15.2" cy="13.2" r="1.74"/><circle cx="14.48" cy="12.48" r="0.74"/><path d="M15.07,29.38a1.23,1.23,0,1,1-1.23-1.23A1.23,1.23,0,0,1,15.07,29.38Z"/><path d="M13.13,28.89a.23.23,0,0,1-.23-.23.23.23,0,1,1,.45,0A.23.23,0,0,1,13.13,28.89Z"/><path d="M14.55,32a3,3,0,1,1-3-2.95A3,3,0,0,1,14.55,32Z"/><path d="M10.88,33.29a2,2,0,1,1,2-2A2,2,0,0,1,10.88,33.29Z"/><path d="M10.05,35.31a.89.89,0,1,1-.89-.89A.88.88,0,0,1,10.05,35.31Z"/><path d="M9.33,34.59a.89.89,0,1,1-1.77,0,.89.89,0,0,1,1.77,0Z"/><circle cx="10.48" cy="29.03" r="0.88"/><path d="M10.65,28.32a.89.89,0,1,1-.89-.89A.89.89,0,0,1,10.65,28.32Z"/><circle cx="13.22" cy="14.02" r="2.12"/><path d="M12.5,14.42a1.12,1.12,0,1,1,1.13-1.12A1.12,1.12,0,0,1,12.5,14.42Z"/><circle cx="15.94" cy="16.47" r="1"/><path d="M14.21,15.75a1,1,0,1,1,1,1A1,1,0,0,1,14.21,15.75Z"/><path d="M13.91,10.63a.52.52,0,1,1-.52-.52A.51.51,0,0,1,13.91,10.63Z"/><path d="M13.19,9.91a.52.52,0,1,1-.51-.52A.51.51,0,0,1,13.19,9.91Z"/><path d="M32.07,33.33A.93.93,0,1,1,31,32.6.93.93,0,0,1,32.07,33.33Z"/><path d="M31.23,32.77a.93.93,0,0,1-.73,1.1.93.93,0,1,1,.73-1.1Z"/><path d="M24.7,6.06A1.07,1.07,0,1,1,23.64,5,1.06,1.06,0,0,1,24.7,6.06Z"/><path d="M22.92,5.41a.06.06,0,0,1-.06-.06H23Z"/><circle cx="11.99" cy="31.25" r="0.2"/><path d="M12.55,31.93a.47.47,0,0,1-.48.48.48.48,0,0,1-.48-.48.49.49,0,0,1,.48-.48A.48.48,0,0,1,12.55,31.93Z"/><path d="M11.2,32a.16.16,0,1,1-.16-.16A.16.16,0,0,1,11.2,32Z"/><path d="M10,30.88a.28.28,0,1,1-.28-.28A.27.27,0,0,1,10,30.88Z"/><circle cx="9.33" cy="28.55" r="0.17"/><path d="M10.29,28.66a.23.23,0,0,1-.23.23.24.24,0,0,1-.23-.23.23.23,0,0,1,.23-.23A.23.23,0,0,1,10.29,28.66Z"/><path d="M8.73,34.45a.14.14,0,0,1-.14.14.15.15,0,0,1-.15-.14.15.15,0,0,1,.15-.15A.15.15,0,0,1,8.73,34.45Z"/><path d="M16.27,32.78a.37.37,0,0,1-.37.37.36.36,0,0,1-.37-.37.37.37,0,0,1,.37-.37A.38.38,0,0,1,16.27,32.78Z"/><circle cx="15.05" cy="33.08" r="0.21"/><path d="M16.12,33.67a.27.27,0,0,1-.53,0,.27.27,0,0,1,.53,0Z"/><circle cx="39.84" cy="16.9" r="2.76"/><path d="M39.13,18a1.77,1.77,0,1,1,1.76-1.77A1.77,1.77,0,0,1,39.13,18Z"/><path d="M38.76,12.15a1.23,1.23,0,1,1-1.23-1.23A1.23,1.23,0,0,1,38.76,12.15Z"/><path d="M36.81,11.66a.22.22,0,0,1-.22-.22.23.23,0,1,1,.22.22Z"/><path d="M38.24,14.82a3,3,0,1,1-3-3A3,3,0,0,1,38.24,14.82Z"/><path d="M34.56,16.06a2,2,0,1,1,2-2A2,2,0,0,1,34.56,16.06Z"/><path d="M33.73,18.08a.89.89,0,1,1-.88-.88A.88.88,0,0,1,33.73,18.08Z"/><path d="M33,17.37a.89.89,0,1,1-.89-.89A.88.88,0,0,1,33,17.37Z"/><path d="M35.05,11.81a.89.89,0,0,1-1.77,0,.89.89,0,1,1,1.77,0Z"/><path d="M34.34,11.09a.89.89,0,1,1-1.77,0,.89.89,0,0,1,1.77,0Z"/><path d="M35.88,14a.2.2,0,1,1-.4,0,.2.2,0,1,1,.4,0Z"/><circle cx="35.76" cy="14.71" r="0.48"/><path d="M34.88,14.72a.16.16,0,0,1-.16.16.16.16,0,0,1-.16-.16.17.17,0,0,1,.16-.16A.16.16,0,0,1,34.88,14.72Z"/><path d="M33.66,13.65a.29.29,0,0,1-.28.28.28.28,0,0,1-.27-.28.27.27,0,0,1,.27-.27A.28.28,0,0,1,33.66,13.65Z"/><circle cx="33.02" cy="11.32" r="0.17"/><path d="M34,11.43a.23.23,0,0,1-.23.23.23.23,0,1,1,0-.45A.23.23,0,0,1,34,11.43Z"/><circle cx="32.28" cy="17.22" r="0.15"/><path d="M40,15.56a.38.38,0,0,1-.75,0,.38.38,0,0,1,.75,0Z"/><path d="M38.94,15.86a.2.2,0,0,1-.2.2.2.2,0,0,1-.21-.2.21.21,0,0,1,.21-.21A.2.2,0,0,1,38.94,15.86Z"/><path d="M39.81,16.45a.27.27,0,1,1-.27-.27A.27.27,0,0,1,39.81,16.45Z"/><path d="M19.9,38.8a.54.54,0,0,1-.42.63.53.53,0,1,1-.21-1A.53.53,0,0,1,19.9,38.8Z"/><path d="M23.17,40.3a.5.5,0,0,1-.4.6.51.51,0,0,1-.61-.4.53.53,0,0,1,.4-.61A.52.52,0,0,1,23.17,40.3Z"/><path d="M23.09,39.3a.16.16,0,0,1-.13.19.16.16,0,0,1-.19-.13.15.15,0,0,1,.12-.19A.17.17,0,0,1,23.09,39.3Z"/><path d="M21.65,40.61a.18.18,0,0,1-.36.07.18.18,0,0,1,.14-.22A.19.19,0,0,1,21.65,40.61Z"/><path d="M24.49,35.53a1,1,0,1,1-1.18-.78A1,1,0,0,1,24.49,35.53Z"/><path d="M25.08,36.81a.32.32,0,1,1-.63.13.32.32,0,0,1,.63-.13Z"/><path d="M24.46,37.35a.32.32,0,0,1-.26.38.32.32,0,0,1-.38-.25.33.33,0,0,1,.26-.38A.33.33,0,0,1,24.46,37.35Z"/><path d="M25.5,39.28a.29.29,0,0,1-.23.35.3.3,0,1,1-.12-.59A.3.3,0,0,1,25.5,39.28Z"/><path d="M28.07,38.24a.2.2,0,0,1-.4.08.21.21,0,0,1,.16-.24A.21.21,0,0,1,28.07,38.24Z"/><path d="M29.61,37.13a.41.41,0,0,1-.81.16.42.42,0,0,1,.32-.48A.42.42,0,0,1,29.61,37.13Z"/><path d="M29.69,37.91a.21.21,0,0,1-.16.24.21.21,0,0,1-.24-.16.2.2,0,0,1,.4-.08Z"/><path d="M27.83,34.76a.16.16,0,0,1-.12.19.16.16,0,0,1-.19-.13.14.14,0,0,1,.12-.18A.15.15,0,0,1,27.83,34.76Z"/><path d="M30.5,33.38a.16.16,0,1,1-.31.06.15.15,0,0,1,.12-.18A.15.15,0,0,1,30.5,33.38Z"/><path d="M30.52,32.94a.1.1,0,0,1-.08.12.1.1,0,0,1-.12-.08.11.11,0,0,1,.08-.13A.11.11,0,0,1,30.52,32.94Z"/><circle cx="17.61" cy="8.52" r="0.52"/><circle cx="17.79" cy="7.46" r="0.18"/><path d="M21.15,7.65a.78.78,0,1,1-.78-.78A.78.78,0,0,1,21.15,7.65Z"/><circle cx="19.78" cy="8.51" r="0.17"/><path d="M19.57,7.31a.31.31,0,1,1-.61,0,.31.31,0,0,1,.61,0Z"/><path d="M21.92,12.55a.23.23,0,0,1-.46,0,.23.23,0,0,1,.46,0Z"/><path d="M21.92,12.62a.21.21,0,1,1,.41,0,.2.2,0,0,1-.21.2A.2.2,0,0,1,21.92,12.62Z"/><path d="M22.63,12.22a.34.34,0,0,1-.67,0,.34.34,0,1,1,.67,0Z"/><circle cx="24.96" cy="8.95" r="0.33"/><path d="M25.07,9.28a.61.61,0,1,1,.6.61A.6.6,0,0,1,25.07,9.28Z"/><circle cx="31.2" cy="10.72" r="0.64"/><path d="M30.75,11.15a.34.34,0,1,1-.34-.34A.34.34,0,0,1,30.75,11.15Z"/><circle cx="29.55" cy="12.27" r="0.3"/><path d="M30.65,9.83a.51.51,0,0,1-.51.51.51.51,0,0,1,0-1A.51.51,0,0,1,30.65,9.83Z"/><path d="M27.83,11a.14.14,0,1,1-.28,0,.14.14,0,1,1,.28,0Z"/><circle cx="27.68" cy="7.16" r="0.29"/><path d="M34.94,33.38a.39.39,0,1,1-.39-.39A.39.39,0,0,1,34.94,33.38Z"/><path d="M36.57,33.08a.36.36,0,1,1-.36-.36A.36.36,0,0,1,36.57,33.08Z"/><path d="M36.87,34.23a.6.6,0,0,1-.6.6.61.61,0,1,1,.6-.6Z"/><path d="M38.09,29.36a.2.2,0,0,1-.2.2.2.2,0,0,1-.21-.2.21.21,0,0,1,.21-.21A.2.2,0,0,1,38.09,29.36Z"/><path d="M39.75,29.33a.83.83,0,1,1-.83-.83A.83.83,0,0,1,39.75,29.33Z"/><circle cx="38.96" cy="22.59" r="0.16"/><path d="M41.59,19.48a.18.18,0,0,1-.17.17.18.18,0,0,1-.18-.17.18.18,0,0,1,.18-.18A.18.18,0,0,1,41.59,19.48Z"/><path d="M41.24,24.93a.19.19,0,0,1-.18.19.2.2,0,0,1-.19-.19.19.19,0,0,1,.19-.18A.18.18,0,0,1,41.24,24.93Z"/><path d="M41.17,25.34a.41.41,0,1,1-.41-.41A.4.4,0,0,1,41.17,25.34Z"/><circle cx="9.83" cy="23.54" r="0.54"/><circle cx="10.23" cy="22.3" r="0.82"/><circle cx="11.53" cy="21.43" r="0.36"/><path d="M12.6,23a.36.36,0,1,1-.35-.35A.36.36,0,0,1,12.6,23Z"/><path d="M14.76,21a.16.16,0,1,1-.16-.16A.16.16,0,0,1,14.76,21Z"/><path d="M12.12,12.91a.31.31,0,1,0,.61,0,.31.31,0,0,0-.61,0Z"/><circle cx="13.46" cy="23.58" r="0.19"/><path d="M15.82,16.11a.36.36,0,1,1-.36-.36A.36.36,0,0,1,15.82,16.11Z"/><path d="M15.82,15.42a.18.18,0,1,1-.18-.18A.18.18,0,0,1,15.82,15.42Z"/><path d="M15.14,12.2a.18.18,0,1,1-.36,0,.18.18,0,0,1,.36,0Z"/><path d="M36.35,28.49a12.69,12.69,0,1,1-6.78-16.61A12.69,12.69,0,0,1,36.35,28.49Z"/><path d="M33.18,21.87a4.57,4.57,0,1,1,2.44,6A4.57,4.57,0,0,1,33.18,21.87Z"/><path d="M26.27,19.89a7.09,7.09,0,1,1-3.78-9.29A7.09,7.09,0,0,1,26.27,19.89Z"/><path d="M18.22,31.75a3,3,0,1,1-1.61-3.95A3,3,0,0,1,18.22,31.75Z"/><path d="M19.78,31.74A10.74,10.74,0,1,1,33.84,26,10.76,10.76,0,0,1,19.78,31.74Z"/><path d="M34.56,25.55a4,4,0,1,1,5.18-2.11A4,4,0,0,1,34.56,25.55Z"/><path d="M15.67,19A4,4,0,1,1,21,16.83,4,4,0,0,1,15.67,19Z"/><path d="M18,30.68a2.59,2.59,0,1,1-1.38-3.39A2.6,2.6,0,0,1,18,30.68Z"/><path d="M30.36,27.34a1.26,1.26,0,0,1-2.33-1,1.26,1.26,0,0,1,2.33,1Z"/><path d="M27.46,27.31a.37.37,0,0,1-.49.2.38.38,0,0,1-.2-.5.37.37,0,0,1,.49-.2A.38.38,0,0,1,27.46,27.31Z"/><path d="M30.35,24.87a.46.46,0,1,1-.24-.61A.47.47,0,0,1,30.35,24.87Z"/><path d="M26.76,30.61a.89.89,0,1,1-.47-1.16A.88.88,0,0,1,26.76,30.61Z"/><path d="M28.15,29.24a.39.39,0,1,1-.72-.3.39.39,0,0,1,.51-.2A.38.38,0,0,1,28.15,29.24Z"/><path d="M24.53,30.29a.32.32,0,0,1-.42.17.33.33,0,0,1-.18-.43.33.33,0,0,1,.43-.17A.32.32,0,0,1,24.53,30.29Z"/><path d="M33.38,26.47A.61.61,0,0,1,32.26,26a.61.61,0,1,1,1.12.47Z"/><path d="M33.5,24.83a.35.35,0,0,1-.45.19.34.34,0,0,1-.18-.45.34.34,0,0,1,.45-.19A.35.35,0,0,1,33.5,24.83Z"/><path d="M23.94,28.89a.61.61,0,1,1-1.12-.47.61.61,0,0,1,1.12.47Z"/><path d="M21.34,28a.2.2,0,0,1-.27.11.2.2,0,0,1-.11-.27.21.21,0,1,1,.38.16Z"/><path d="M15.75,14.44a.48.48,0,0,1-.89-.38.48.48,0,0,1,.89.38Z"/><path d="M16,13a.33.33,0,0,1-.43.18.34.34,0,0,1-.18-.44.33.33,0,0,1,.44-.17A.32.32,0,0,1,16,13Z"/><path d="M16.49,31.64a.57.57,0,1,1-.31-.75A.58.58,0,0,1,16.49,31.64Z"/><path d="M17.07,30.54a.22.22,0,1,1-.12-.29A.23.23,0,0,1,17.07,30.54Z"/><path d="M39.35,21.38a.7.7,0,0,1-1.29-.55.7.7,0,1,1,1.29.55Z"/><path d="M37.88,22a.2.2,0,0,1,.26-.11.21.21,0,0,1,.11.27.2.2,0,0,1-.26.1A.2.2,0,0,1,37.88,22Z"/><path d="M34.63,17.35a.15.15,0,1,1-.28-.12.15.15,0,0,1,.2-.08A.14.14,0,0,1,34.63,17.35Z"/><path d="M38,26.35a.36.36,0,1,1-.19-.47A.37.37,0,0,1,38,26.35Z"/></g><circle class="cls-2" cx="19.7" cy="20.15" r="19.7" transform="translate(-4.46 34.64) rotate(-76.6)"/><circle class="cls-3" cx="19.7" cy="20.15" r="17.22"/><path class="cls-4" d="M13.92,29.12a2.77,2.77,0,1,1-2.76-2.76A2.77,2.77,0,0,1,13.92,29.12Z"/><path class="cls-5" d="M10.44,30.17a1.76,1.76,0,1,1,1.76-1.76A1.76,1.76,0,0,1,10.44,30.17Z"/><path class="cls-4" d="M23.32,32.63a5.25,5.25,0,1,1-6.2-4.1A5.25,5.25,0,0,1,23.32,32.63Z"/><path class="cls-5" d="M18.18,37.28a4.25,4.25,0,1,1,3.31-5A4.26,4.26,0,0,1,18.18,37.28Z"/><path class="cls-4" d="M23,28.21a2.12,2.12,0,1,1-1.65,2.5A2.11,2.11,0,0,1,23,28.21Z"/><path class="cls-5" d="M22.78,30.83a1.12,1.12,0,1,1-.45-2.2,1.12,1.12,0,0,1,.45,2.2Z"/><path class="cls-4" d="M22.1,34.54a3.23,3.23,0,1,1,3.8,2.52A3.23,3.23,0,0,1,22.1,34.54Z"/><path class="cls-5" d="M24.86,35.52a2.23,2.23,0,1,1,1.74-2.63A2.23,2.23,0,0,1,24.86,35.52Z"/><path class="cls-4" d="M18,4A3.53,3.53,0,1,1,14.45.51,3.52,3.52,0,0,1,18,4Z"/><path class="cls-5" d="M13.74,5.85a2.53,2.53,0,1,1,2.52-2.53A2.53,2.53,0,0,1,13.74,5.85Z"/><path class="cls-4" d="M19.53,7.82a2,2,0,1,1-2-2A2,2,0,0,1,19.53,7.82Z"/><path class="cls-5" d="M16.86,8.06a1,1,0,1,1,.95-1A1,1,0,0,1,16.86,8.06Z"/><circle class="cls-4" cx="11.86" cy="8.5" r="1.27"/><path class="cls-5" d="M11.14,8.06a.28.28,0,0,1-.27-.28.28.28,0,0,1,.55,0A.28.28,0,0,1,11.14,8.06Z"/><path class="cls-4" d="M23.93,4.53a2.66,2.66,0,1,1-2.66-2.66A2.66,2.66,0,0,1,23.93,4.53Z"/><path class="cls-5" d="M20.56,5.47a1.66,1.66,0,1,1,1.65-1.66A1.66,1.66,0,0,1,20.56,5.47Z"/><path class="cls-4" d="M26.44,2.93A2.42,2.42,0,1,1,24,.51,2.41,2.41,0,0,1,26.44,2.93Z"/><path class="cls-5" d="M23.31,3.62a1.41,1.41,0,1,1,1.41-1.41A1.41,1.41,0,0,1,23.31,3.62Z"/><circle class="cls-4" cx="24.87" cy="6.97" r="3.82"/><path class="cls-5" d="M24.15,9.08A2.83,2.83,0,1,1,27,6.25,2.83,2.83,0,0,1,24.15,9.08Z"/><circle class="cls-4" cx="27.75" cy="25.13" r="1.06"/><path class="cls-5" d="M27,24.48a.06.06,0,0,1-.06-.06h.12Z"/><path class="cls-4" d="M28,29.66a3.17,3.17,0,1,1,3.17,3.16A3.16,3.16,0,0,1,28,29.66Z"/><path class="cls-5" d="M30.42,31.11a2.17,2.17,0,1,1,2.17-2.17A2.17,2.17,0,0,1,30.42,31.11Z"/><circle class="cls-4" cx="33.86" cy="25.09" r="2.72"/><path class="cls-5" d="M33.14,26.09a1.72,1.72,0,1,1,1.72-1.72A1.72,1.72,0,0,1,33.14,26.09Z"/><path class="cls-4" d="M32.68,18.47a1.75,1.75,0,1,1,1.74,1.74A1.74,1.74,0,0,1,32.68,18.47Z"/><path class="cls-5" d="M33.71,18.49a.74.74,0,1,1,0-1.48.74.74,0,0,1,0,1.48Z"/><path class="cls-4" d="M34.42,20.9a2.41,2.41,0,1,1,2.41,2.41A2.41,2.41,0,0,1,34.42,20.9Z"/><path class="cls-5" d="M36.12,21.59a1.41,1.41,0,1,1,1.41-1.41A1.41,1.41,0,0,1,36.12,21.59Z"/><path class="cls-4" d="M38.55,15.13A1.6,1.6,0,1,1,37,13.54,1.6,1.6,0,0,1,38.55,15.13Z"/><path class="cls-5" d="M36.24,15a.6.6,0,1,1,0-1.19.6.6,0,0,1,0,1.19Z"/><path class="cls-4" d="M6.34,13.27A1.24,1.24,0,1,1,5.1,12,1.24,1.24,0,0,1,6.34,13.27Z"/><path class="cls-5" d="M4.39,12.78a.23.23,0,1,1,.23-.23A.23.23,0,0,1,4.39,12.78Z"/><circle class="cls-4" cx="5.48" cy="17.85" r="4.31"/><path class="cls-5" d="M4.77,20.43a3.31,3.31,0,1,1,3.3-3.3A3.31,3.31,0,0,1,4.77,20.43Z"/><circle class="cls-4" cx="6.89" cy="11.85" r="1.91"/><path class="cls-5" d="M8.72,19.83a.91.91,0,0,1,0-1.82.91.91,0,1,1,0,1.82Z"/><path class="cls-4" d="M7.52,14.68a1.14,1.14,0,1,0,1.13-1.14A1.14,1.14,0,0,0,7.52,14.68Z"/><path class="cls-5" d="M7.94,14.09A.13.13,0,0,1,7.8,14a.14.14,0,0,1,.14-.14.13.13,0,0,1,.13.14A.13.13,0,0,1,7.94,14.09Z"/><circle class="cls-4" cx="10.2" cy="8.2" r="1.74"/><circle class="cls-5" cx="9.48" cy="7.48" r="0.74"/><path class="cls-4" d="M10.07,24.38a1.23,1.23,0,1,1-1.23-1.23A1.23,1.23,0,0,1,10.07,24.38Z"/><path class="cls-5" d="M8.13,23.89a.23.23,0,0,1-.23-.23.23.23,0,1,1,.45,0A.23.23,0,0,1,8.13,23.89Z"/><path class="cls-4" d="M9.55,27a3,3,0,1,1-3-2.95A3,3,0,0,1,9.55,27Z"/><path class="cls-5" d="M5.88,28.29a2,2,0,1,1,2-2A2,2,0,0,1,5.88,28.29Z"/><path class="cls-4" d="M5.05,30.31a.89.89,0,1,1-.89-.89A.88.88,0,0,1,5.05,30.31Z"/><path class="cls-5" d="M4.33,29.59a.89.89,0,1,1-1.77,0,.89.89,0,0,1,1.77,0Z"/><circle class="cls-4" cx="5.48" cy="24.03" r="0.88"/><path class="cls-5" d="M5.65,23.32a.89.89,0,1,1-.89-.89A.89.89,0,0,1,5.65,23.32Z"/><circle class="cls-4" cx="8.22" cy="9.02" r="2.12"/><path class="cls-5" d="M7.5,9.42A1.12,1.12,0,1,1,8.63,8.3,1.12,1.12,0,0,1,7.5,9.42Z"/><circle class="cls-4" cx="10.94" cy="11.47" r="1"/><path class="cls-5" d="M9.21,10.75a1,1,0,1,1,1,1A1,1,0,0,1,9.21,10.75Z"/><path class="cls-4" d="M8.91,5.63a.52.52,0,1,1-.52-.52A.51.51,0,0,1,8.91,5.63Z"/><path class="cls-5" d="M8.19,4.91a.52.52,0,1,1-.51-.52A.51.51,0,0,1,8.19,4.91Z"/><path class="cls-4" d="M27.07,28.33A.93.93,0,1,1,26,27.6.93.93,0,0,1,27.07,28.33Z"/><path class="cls-5" d="M26.23,27.77a.93.93,0,0,1-.73,1.1.93.93,0,1,1,.73-1.1Z"/><path class="cls-4" d="M19.7,1.06A1.07,1.07,0,1,1,18.64,0,1.06,1.06,0,0,1,19.7,1.06Z"/><path class="cls-5" d="M17.92.41a.06.06,0,0,1-.06-.06H18Z"/><circle class="cls-4" cx="6.99" cy="26.25" r="0.2"/><path class="cls-4" d="M7.55,26.93a.47.47,0,0,1-.48.48.48.48,0,0,1-.48-.48.49.49,0,0,1,.48-.48A.48.48,0,0,1,7.55,26.93Z"/><path class="cls-4" d="M6.2,27A.16.16,0,1,1,6,26.79.16.16,0,0,1,6.2,27Z"/><path class="cls-4" d="M5,25.88a.28.28,0,1,1-.28-.28A.27.27,0,0,1,5,25.88Z"/><circle class="cls-4" cx="4.33" cy="23.55" r="0.17"/><path class="cls-4" d="M5.29,23.66a.23.23,0,0,1-.23.23.24.24,0,0,1-.23-.23.23.23,0,0,1,.23-.23A.23.23,0,0,1,5.29,23.66Z"/><path class="cls-4" d="M3.73,29.45a.14.14,0,0,1-.14.14.15.15,0,0,1-.15-.14.15.15,0,0,1,.15-.15A.15.15,0,0,1,3.73,29.45Z"/><path class="cls-4" d="M11.27,27.78a.37.37,0,0,1-.37.37.36.36,0,0,1-.37-.37.37.37,0,0,1,.37-.37A.38.38,0,0,1,11.27,27.78Z"/><circle class="cls-4" cx="10.05" cy="28.08" r="0.21"/><path class="cls-4" d="M11.12,28.67a.27.27,0,0,1-.53,0,.27.27,0,0,1,.53,0Z"/><circle class="cls-4" cx="34.84" cy="11.9" r="2.76"/><path class="cls-5" d="M34.13,13a1.77,1.77,0,1,1,1.76-1.77A1.77,1.77,0,0,1,34.13,13Z"/><path class="cls-4" d="M33.76,7.15a1.23,1.23,0,1,1-1.23-1.23A1.23,1.23,0,0,1,33.76,7.15Z"/><path class="cls-5" d="M31.81,6.66a.22.22,0,0,1-.22-.22.23.23,0,1,1,.22.22Z"/><path class="cls-4" d="M33.24,9.82a3,3,0,1,1-3-3A3,3,0,0,1,33.24,9.82Z"/><path class="cls-5" d="M29.56,11.06a2,2,0,1,1,2-2A2,2,0,0,1,29.56,11.06Z"/><path class="cls-4" d="M28.73,13.08a.89.89,0,1,1-.88-.88A.88.88,0,0,1,28.73,13.08Z"/><path class="cls-5" d="M28,12.37a.89.89,0,1,1-.89-.89A.88.88,0,0,1,28,12.37Z"/><path class="cls-4" d="M30.05,6.81a.89.89,0,0,1-1.77,0,.89.89,0,1,1,1.77,0Z"/><path class="cls-5" d="M29.34,6.09a.89.89,0,1,1-1.77,0,.89.89,0,0,1,1.77,0Z"/><path class="cls-4" d="M30.88,9a.2.2,0,1,1-.4,0,.2.2,0,0,1,.4,0Z"/><circle class="cls-4" cx="30.76" cy="9.71" r="0.48"/><path class="cls-4" d="M29.88,9.72a.16.16,0,0,1-.16.16.16.16,0,0,1-.16-.16.17.17,0,0,1,.16-.16A.16.16,0,0,1,29.88,9.72Z"/><path class="cls-4" d="M28.66,8.65a.29.29,0,0,1-.28.28.28.28,0,0,1-.27-.28.27.27,0,0,1,.27-.27A.28.28,0,0,1,28.66,8.65Z"/><circle class="cls-4" cx="28.02" cy="6.32" r="0.17"/><path class="cls-4" d="M29,6.43a.23.23,0,0,1-.23.23.23.23,0,1,1,0-.45A.23.23,0,0,1,29,6.43Z"/><circle class="cls-4" cx="27.28" cy="12.22" r="0.15"/><path class="cls-4" d="M35,10.56a.38.38,0,0,1-.75,0,.38.38,0,0,1,.75,0Z"/><path class="cls-4" d="M33.94,10.86a.2.2,0,0,1-.2.2.2.2,0,0,1-.21-.2.21.21,0,0,1,.21-.21A.2.2,0,0,1,33.94,10.86Z"/><path class="cls-4" d="M34.81,11.45a.27.27,0,1,1-.27-.27A.27.27,0,0,1,34.81,11.45Z"/><path class="cls-4" d="M14.9,33.8a.54.54,0,0,1-.42.63.53.53,0,1,1-.21-1A.53.53,0,0,1,14.9,33.8Z"/><path class="cls-4" d="M18.17,35.3a.5.5,0,0,1-.4.6.51.51,0,0,1-.61-.4.53.53,0,0,1,.4-.61A.52.52,0,0,1,18.17,35.3Z"/><path class="cls-4" d="M18.09,34.3a.16.16,0,0,1-.13.19.16.16,0,0,1-.19-.13.15.15,0,0,1,.12-.19A.17.17,0,0,1,18.09,34.3Z"/><path class="cls-4" d="M16.65,35.61a.18.18,0,0,1-.36.07.18.18,0,0,1,.14-.22A.19.19,0,0,1,16.65,35.61Z"/><path class="cls-4" d="M19.49,30.53a1,1,0,1,1-1.18-.78A1,1,0,0,1,19.49,30.53Z"/><path class="cls-4" d="M20.08,31.81a.32.32,0,0,1-.63.13.32.32,0,1,1,.63-.13Z"/><path class="cls-4" d="M19.46,32.35a.32.32,0,0,1-.26.38.32.32,0,0,1-.38-.25.33.33,0,0,1,.26-.38A.33.33,0,0,1,19.46,32.35Z"/><path class="cls-4" d="M20.5,34.28a.29.29,0,0,1-.23.35.3.3,0,1,1-.12-.59A.3.3,0,0,1,20.5,34.28Z"/><path class="cls-4" d="M23.07,33.24a.2.2,0,0,1-.4.08.21.21,0,0,1,.16-.24A.21.21,0,0,1,23.07,33.24Z"/><path class="cls-4" d="M24.61,32.13a.41.41,0,0,1-.81.16.42.42,0,0,1,.32-.48A.42.42,0,0,1,24.61,32.13Z"/><path class="cls-4" d="M24.69,32.91a.21.21,0,0,1-.16.24.21.21,0,0,1-.24-.16.2.2,0,0,1,.4-.08Z"/><path class="cls-4" d="M22.83,29.76a.16.16,0,0,1-.12.19.16.16,0,0,1-.19-.13.14.14,0,0,1,.12-.18A.15.15,0,0,1,22.83,29.76Z"/><path class="cls-4" d="M25.5,28.38a.16.16,0,1,1-.31.06.15.15,0,0,1,.12-.18A.15.15,0,0,1,25.5,28.38Z"/><path class="cls-4" d="M25.52,27.94a.1.1,0,0,1-.08.12.1.1,0,0,1-.12-.08.11.11,0,0,1,.08-.13A.11.11,0,0,1,25.52,27.94Z"/><circle class="cls-4" cx="12.61" cy="3.52" r="0.52"/><circle class="cls-4" cx="12.79" cy="2.46" r="0.18"/><path class="cls-4" d="M16.15,2.65a.78.78,0,1,1-.78-.78A.78.78,0,0,1,16.15,2.65Z"/><circle class="cls-4" cx="14.78" cy="3.51" r="0.17"/><path class="cls-4" d="M14.57,2.31a.31.31,0,1,1-.61,0,.31.31,0,0,1,.61,0Z"/><path class="cls-4" d="M16.92,7.55a.23.23,0,1,1-.46,0,.23.23,0,0,1,.46,0Z"/><path class="cls-4" d="M16.92,7.62a.21.21,0,1,1,.41,0,.2.2,0,0,1-.21.2A.2.2,0,0,1,16.92,7.62Z"/><path class="cls-4" d="M17.63,7.22a.34.34,0,0,1-.67,0,.34.34,0,1,1,.67,0Z"/><circle class="cls-4" cx="19.96" cy="3.95" r="0.33"/><path class="cls-4" d="M20.07,4.28a.61.61,0,1,1,.6.61A.6.6,0,0,1,20.07,4.28Z"/><circle class="cls-4" cx="26.2" cy="5.72" r="0.64"/><path class="cls-4" d="M25.75,6.15a.34.34,0,1,1-.34-.34A.34.34,0,0,1,25.75,6.15Z"/><circle class="cls-4" cx="24.55" cy="7.27" r="0.3"/><path class="cls-4" d="M25.65,4.83a.51.51,0,0,1-.51.51.51.51,0,0,1,0-1A.51.51,0,0,1,25.65,4.83Z"/><path class="cls-4" d="M22.83,6a.14.14,0,1,1-.28,0,.14.14,0,1,1,.28,0Z"/><circle class="cls-4" cx="22.68" cy="2.16" r="0.29"/><path class="cls-4" d="M29.94,28.38a.39.39,0,1,1-.39-.39A.39.39,0,0,1,29.94,28.38Z"/><path class="cls-4" d="M31.57,28.08a.36.36,0,1,1-.36-.36A.36.36,0,0,1,31.57,28.08Z"/><path class="cls-4" d="M31.87,29.23a.6.6,0,0,1-.6.6.61.61,0,1,1,.6-.6Z"/><path class="cls-4" d="M33.09,24.36a.2.2,0,0,1-.2.2.2.2,0,0,1-.21-.2.21.21,0,0,1,.21-.21A.2.2,0,0,1,33.09,24.36Z"/><path class="cls-4" d="M34.75,24.33a.83.83,0,1,1-.83-.83A.83.83,0,0,1,34.75,24.33Z"/><circle class="cls-4" cx="33.96" cy="17.59" r="0.16"/><path class="cls-4" d="M36.59,14.48a.18.18,0,0,1-.17.17.18.18,0,0,1-.18-.17.18.18,0,0,1,.18-.18A.18.18,0,0,1,36.59,14.48Z"/><path class="cls-4" d="M36.24,19.93a.19.19,0,0,1-.18.19.2.2,0,0,1-.19-.19.19.19,0,0,1,.19-.18A.18.18,0,0,1,36.24,19.93Z"/><path class="cls-4" d="M36.17,20.34a.41.41,0,1,1-.41-.41A.4.4,0,0,1,36.17,20.34Z"/><circle class="cls-4" cx="4.83" cy="18.54" r="0.54"/><circle class="cls-4" cx="5.23" cy="17.3" r="0.82"/><circle class="cls-4" cx="6.53" cy="16.43" r="0.36"/><path class="cls-4" d="M7.6,18a.36.36,0,1,1-.35-.35A.36.36,0,0,1,7.6,18Z"/><path class="cls-4" d="M9.76,16a.16.16,0,1,1-.16-.16A.16.16,0,0,1,9.76,16Z"/><path class="cls-4" d="M7.12,7.91a.31.31,0,1,0,.61,0,.31.31,0,0,0-.61,0Z"/><circle class="cls-4" cx="8.46" cy="18.58" r="0.19"/><path class="cls-4" d="M10.82,11.11a.36.36,0,1,1-.36-.36A.36.36,0,0,1,10.82,11.11Z"/><path class="cls-4" d="M10.82,10.42a.18.18,0,1,1-.18-.18A.18.18,0,0,1,10.82,10.42Z"/><path class="cls-4" d="M10.14,7.2a.18.18,0,0,1-.36,0,.18.18,0,0,1,.36,0Z"/><path class="cls-4" d="M31.35,23.49A12.69,12.69,0,1,1,24.57,6.88,12.69,12.69,0,0,1,31.35,23.49Z"/><path class="cls-4" d="M28.18,16.87a4.57,4.57,0,1,1,2.44,6A4.57,4.57,0,0,1,28.18,16.87Z"/><path class="cls-4" d="M21.27,14.89A7.09,7.09,0,1,1,17.49,5.6,7.09,7.09,0,0,1,21.27,14.89Z"/><path class="cls-4" d="M13.22,26.75a3,3,0,1,1-1.61-3.95A3,3,0,0,1,13.22,26.75Z"/><path class="cls-5" d="M14.78,26.74A10.74,10.74,0,1,1,28.84,21,10.76,10.76,0,0,1,14.78,26.74Z"/><path class="cls-5" d="M29.56,20.55a4,4,0,1,1,5.18-2.11A4,4,0,0,1,29.56,20.55Z"/><path class="cls-5" d="M10.67,14A4,4,0,1,1,16,11.83,4,4,0,0,1,10.67,14Z"/><path class="cls-5" d="M13,25.68a2.59,2.59,0,1,1-1.38-3.39A2.6,2.6,0,0,1,13,25.68Z"/><path class="cls-4" d="M25.36,22.34a1.26,1.26,0,0,1-2.33-1,1.26,1.26,0,0,1,2.33,1Z"/><path class="cls-4" d="M22.46,22.31a.37.37,0,0,1-.49.2.38.38,0,0,1-.2-.5.37.37,0,0,1,.49-.2A.38.38,0,0,1,22.46,22.31Z"/><path class="cls-4" d="M25.35,19.87a.46.46,0,1,1-.24-.61A.47.47,0,0,1,25.35,19.87Z"/><path class="cls-4" d="M21.76,25.61a.89.89,0,1,1-.47-1.16A.88.88,0,0,1,21.76,25.61Z"/><path class="cls-4" d="M23.15,24.24a.39.39,0,1,1-.72-.3.39.39,0,0,1,.51-.2A.38.38,0,0,1,23.15,24.24Z"/><path class="cls-4" d="M19.53,25.29a.32.32,0,0,1-.42.17.33.33,0,0,1-.18-.43.33.33,0,0,1,.43-.17A.32.32,0,0,1,19.53,25.29Z"/><path class="cls-4" d="M28.38,21.47A.61.61,0,0,1,27.26,21a.61.61,0,1,1,1.12.47Z"/><path class="cls-4" d="M28.5,19.83a.35.35,0,0,1-.45.19.34.34,0,0,1-.18-.45.34.34,0,0,1,.45-.19A.35.35,0,0,1,28.5,19.83Z"/><path class="cls-4" d="M18.94,23.89a.61.61,0,1,1-1.12-.47.61.61,0,0,1,1.12.47Z"/><path class="cls-4" d="M16.34,23a.2.2,0,0,1-.27.11.2.2,0,0,1-.11-.27.21.21,0,1,1,.38.16Z"/><path class="cls-4" d="M10.75,9.44a.48.48,0,0,1-.89-.38.48.48,0,0,1,.89.38Z"/><path class="cls-4" d="M11,8a.33.33,0,0,1-.43.18.34.34,0,0,1-.18-.44.33.33,0,0,1,.44-.17A.32.32,0,0,1,11,8Z"/><path class="cls-4" d="M11.49,26.64a.57.57,0,1,1-.31-.75A.58.58,0,0,1,11.49,26.64Z"/><path class="cls-4" d="M12.07,25.54a.22.22,0,1,1-.12-.29A.23.23,0,0,1,12.07,25.54Z"/><path class="cls-4" d="M34.35,16.38a.7.7,0,0,1-1.29-.55.7.7,0,0,1,1.29.55Z"/><path class="cls-4" d="M32.88,17a.2.2,0,0,1,.26-.11.21.21,0,0,1,.11.27.2.2,0,0,1-.26.1A.2.2,0,0,1,32.88,17Z"/><path class="cls-4" d="M29.63,12.35a.15.15,0,1,1-.28-.12.15.15,0,0,1,.2-.08A.14.14,0,0,1,29.63,12.35Z"/><path class="cls-4" d="M33,21.35a.36.36,0,1,1-.19-.47A.37.37,0,0,1,33,21.35Z"/></g></g></svg>