<svg width="32" height="32" viewBox="0 0 32 32" fill="none" xmlns="http://www.w3.org/2000/svg">
<path d="M8 16L16 8L24 16L16 24L8 16Z" fill="#6F69AC"/>
<path d="M16 30C15.7264 30.0004 15.4554 29.9467 15.2026 29.842C14.9498 29.7374 14.7202 29.5837 14.527 29.39L2.609 17.474C2.21904 17.083 2.00005 16.5532 2.00005 16.001C2.00005 15.4487 2.21904 14.919 2.609 14.528L14.527 2.609C14.918 2.21904 15.4477 2.00005 16 2.00005C16.5522 2.00005 17.082 2.21904 17.473 2.609L29.391 14.527C29.781 14.918 30 15.4477 30 16C30 16.5522 29.781 17.082 29.391 17.473L17.473 29.391C17.2797 29.5845 17.0501 29.738 16.7973 29.8425C16.5445 29.947 16.2735 30.0005 16 30ZM16 4C15.9889 3.99984 15.9779 4.00188 15.9676 4.006C15.9573 4.01012 15.9479 4.01624 15.94 4.024L4.025 15.94C4.00949 15.9557 4.00079 15.9769 4.00079 15.999C4.00079 16.0211 4.00949 16.0423 4.025 16.058L15.94 27.976C15.9557 27.9915 15.9769 28.0002 15.999 28.0002C16.0211 28.0002 16.0423 27.9915 16.058 27.976L27.976 16.06C27.9915 16.0443 28.0002 16.0231 28.0002 16.001C28.0002 15.9789 27.9915 15.9577 27.976 15.942L16.06 4.024C16.0522 4.01606 16.0428 4.00975 16.0325 4.00546C16.0222 4.00117 16.0112 3.99897 16 3.999V4Z" fill="#6F69AC"/>
</svg>
