<svg xmlns="http://www.w3.org/2000/svg" xmlns:xlink="http://www.w3.org/1999/xlink" viewBox="0 0 105.88 81.15"><defs><style>.cls-1,.cls-2{fill:none;}.cls-2{stroke:#fff;stroke-width:0.3px;}.cls-3{isolation:isolate;}.cls-4{opacity:0.2;}.cls-10,.cls-5{mix-blend-mode:multiply;}.cls-15,.cls-6{opacity:0.3;mix-blend-mode:overlay;}.cls-7{fill:#fff1de;}.cls-8{fill:#ebd6bc;}.cls-9{fill:#fff6eb;}.cls-10{fill:#e4e8ed;}.cls-11{fill:#f26155;}.cls-12{fill:#fbfbfb;}.cls-13{fill:#435266;}.cls-14{fill:#2bd4ed;}.cls-15{fill:url(#Mezzotint_Irregular_2);}</style><pattern id="Mezzotint_Irregular_2" data-name="Mezzotint Irregular 2" width="72" height="72" patternTransform="translate(46.65 49.42) scale(0.81)" patternUnits="userSpaceOnUse" viewBox="0 0 72 72"><rect class="cls-1" width="72" height="72"/><path class="cls-2" d="M68.25,75.5c2.25-.5,7,0,6,1.75s4,7,4.5,5.5-2-4.5.75-4.75,5.75,3,7.5,3.25,5.5-1.5,3.25-3-2.75-4.5-5.5-4.25-7-.25-6-3"/><path class="cls-2" d="M69.25,73c1.75.5,5.5.25,6,1.75S78,77.5,78,76.25s-1.75-2.75-1.75-2.75-4-3.5-2-4"/><path class="cls-2" d="M71,80.25A21.39,21.39,0,0,0,76.5,84c2,1,5,2,5.25.75s-2.75-3.25-1-3.25,3.25,2,6.5,1.75,9.25-4,7.25-4.75S90.75,75,89,74a6.72,6.72,0,0,0-4-1c-1.25,0-4-1.25-2-2"/><path class="cls-2" d="M-3.75,75.5c2.25-.5,7,0,6,1.75s4,7,4.5,5.5-2-4.5.75-4.75,5.75,3,7.5,3.25,5.5-1.5,3.25-3-2.75-4.5-5.5-4.25-7-.25-6-3"/><path class="cls-2" d="M23.75,71C25,71.5,28,74,27,75.75s-.5,3.25,1,3.5,6.25-2,5.75-3.25-1.75-3.25,0-4.5"/><path class="cls-2" d="M45.75,68.75c1.75,1,1.75,2,.5,3.25s-6.5,1.25-5.75,2.5,5,4,7.75,4,3-3.5,4.75-4"/><path class="cls-2" d="M54,73.25c.75-.5.75-1,.5-3"/><path class="cls-2" d="M56.25,66.25c0,1.5-.38,5.6-.38,6.88a2.71,2.71,0,0,0,.5,1.87"/><path class="cls-2" d="M-2.75,73c1.75.5,5.5.25,6,1.75S6,77.5,6,76.25,4.25,73.5,4.25,73.5s-4-3.5-2-4"/><path class="cls-2" d="M26,70.25c1.75.5,3.75,1,3.5,2.75s.25,4,.75,2.75,0-4,1.5-5"/><path class="cls-2" d="M48.75,65.5c1.25,2.25,1.5,6.25-.25,7.5s-3,3-1.5,2.75,4-.75,4.75-3S54,64,52.5,63.25"/><path class="cls-2" d="M58,65.5c-1,1.5-1,4.5.25,5.75S60.75,72,61,73.5s1.5,3.25,2.5,3.25,2.5-2,3.25-2.75a3.9,3.9,0,0,1,2.5-1c1.75.5,5.5.25,6,1.75"/><path class="cls-2" d="M-1,80.25A21.39,21.39,0,0,0,4.5,84c2,1,5,2,5.25.75S7,81.5,8.75,81.5s3.25,2,6.5,1.75,9.25-4,7.25-4.75S18.75,75,17,74a6.72,6.72,0,0,0-4-1c-1.25,0-4-1.25-2-2"/><path class="cls-2" d="M22.25,71.5c1,2,2.25,3.25,2.5,5s-.5,4.75,2,4.75a12.93,12.93,0,0,0,2-.16"/><path class="cls-2" d="M30.81,80.59a8.6,8.6,0,0,0,3.69-2.34c2-2.25.25-2.75.5-4s6-4,7-3.25-1.25,0-2.25,1.75-4.25,6.25,1,6.5S47,80.5,47.25,81.5s5,.75,5-.5,1.5-6,2-4.75a10.35,10.35,0,0,0,5,5"/><path class="cls-2" d="M61.25,70.75c1.25,1.25,1.5,3.75,2.75,3S66.75,71.5,67.5,71"/><path class="cls-2" d="M-14,65.5c-1,1.5-1,4.5.25,5.75s2.5.75,2.75,2.25,1.5,3.25,2.5,3.25,2.5-2,3.25-2.75a3.9,3.9,0,0,1,2.5-1c1.75.5,5.5.25,6,1.75"/><path class="cls-2" d="M66.75,68.75c3.86-2.44,6-7,10.5-8.5-.15,1-.1,2.3.62,2.85,1.17.9,2.41.62,3.88.15,1-3.21,3.09-7.29,7-6.4,1.39.32,1.32,2,2.14,2.77s2.23,1.68,3.27,1a22.22,22.22,0,0,1,3.63-1.79c.73-.34.2-1.31,1-1.57,1.88-.64,2.18,1.36,3.51,2a15.77,15.77,0,0,0,.51,5.5c.7,2.33,3.38,1.62,5,.5-.31-.26.62-1.75.5-3.37.51-3.66-1.72-6.92,2.1-8.37s7.87-.39,11.87-1a9.33,9.33,0,0,0,3.44-1c1.35-.81,2.55-1.91,4.09-2.34.2.78,1.38.2,1.46,1,.22,2.18,1.65,3.67,2.75,5.36A3.27,3.27,0,0,0,135.14,57c.87.41.74,2.1,1.11,3.26"/><path class="cls-2" d="M69.37,62.38a27.8,27.8,0,0,0,4.5-2.25c.09-.86.83-1.39,1-2.25,0-.2.38-.25.4-.29a2.9,2.9,0,0,1,3.82-1.71c.38.16.18.87.75.75,0,.25.09.6,0,.69a3.21,3.21,0,0,0-1.07,3.52,1.29,1.29,0,0,0,2.11.79,7.54,7.54,0,0,1,3.34-6.89c1.2-.87,2.72-.7,4.16-.61-.07.55.37.09.5.25"/><path class="cls-2" d="M69.75,58.75c1.75-.25,3.75-2.5,5.25-4s3-2.5,4.5-2.25,1,3.25,3.25.25S86.5,50.75,88,51s5,2,6.25.5-2-6,.25-6.25,3.25,3.25,5.25,4.5,3,2.75,4.25.75,3.25-3.75,5.5-3a12.19,12.19,0,0,0,5,.75"/><path class="cls-2" d="M89.26,41.88c-1,.06-1.91.12-2.76.12-3.5,0-4,2.5-1.5,3s4.5,2.5,6.5,4S90,50,88,49s-3,0-5.5,2-1.5-.5-3-1-3,.5-4.5,2-3.5.5-7.5-.5"/><path class="cls-2" d="M68.75,48.25C70.25,49,72,50.5,74,49.5s3.25-2.5,4.5-2,2.5,2.25,4,1.25,3.25-.75,1.5-2.5-5.25-3-4-4S83.75,39,86.5,39s15-2.25,14.5.25-1.75,8.25,0,7.25,3.25-2.75,4.75-2.75S108.5,43.5,109,41s3-3.75,4-2.75,2.5,2.25,2.25.5.5-4.5,4-4.25l1.74.13"/><path class="cls-2" d="M69.25,69.25c1-1.25,2.75-3,4.5-4.75s2.75-1.25,3,.25S77.5,67.25,79,67s5.5-3,6-5.25S86.75,58,88,59s2,4,4.25,4,7.5-4.75,7.75-3-.5,4,.25,6.5,2.5,2.5,5,1.5,4.5-2,4.75-3.5"/><path class="cls-2" d="M68.25,3.5c2.25-.5,7,0,6,1.75s4,7,4.5,5.5-2-4.5.75-4.75S85.25,9,87,9.25s5.5-1.5,3.25-3S87.5,1.75,84.75,2s-7-.25-6-3"/><path class="cls-2" d="M70.5,44.75c1.75,1,2,2,4,1.25S77,45,77,45c2,1,3.5,1.5,3.25.5-.86-3.43-5.77-3-5-4.25C76.5,39.25,80.5,39,82,37s-.5-3.75,1.75-4.75,5.5,1,6.25,2.25,4.5,2.25,7.5,1.5,7.25-2,6.75.5-1.25,5.75.25,4.5,5.25-8.5,7.5-8.25,3.25,0,6.25-.25,9.5.5,9.25-2-4.75-8.25-1-8.25a10.78,10.78,0,0,1,5.24,1.52"/><path class="cls-2" d="M69.25,1c1.75.5,5.5.25,6,1.75S78,5.5,78,4.25,76.25,1.5,76.25,1.5s-4-3.5-2-4"/><path class="cls-2" d="M69.5,36c1.25.5,3.25,2.25,4,1.25s-8-3-.5-4.75,6.25-1,7.25-3.5-6.5-3.25-4.5-4.5,9.33-3,11.75-1.75c3,1.5,1.5,3.75,1.75,4.5s-1,4.75,2.5,6,5,2.5,8,.75,7-3.25,7-2-.25,2,2.5.25,7.25-3.25,9.75-3,5-.5,4-2.25-3.75-2.75-5-4.75.75-3.25,3.25-3.5,12,.75,13.75,2.25,2.25,5.5,2.25,8-1,3.25,1.75,5.25"/><path class="cls-2" d="M69.75,30A8.32,8.32,0,0,0,75,29.5c1-.5-2.5-3-4.75-3.75"/><path class="cls-2" d="M70.25,20.75c3.75-.5,7.25-1.5,9.75-1s7.75-.5,9.75,3"/><path class="cls-2" d="M70.5,16.75c3.5.5,10.75,2,12.5,2,.55,0,1.78,0,3.25.06"/><path class="cls-2" d="M71,8.25A21.39,21.39,0,0,0,76.5,12c2,1,5,2,5.25.75S79,9.5,80.75,9.5s3.25,2,6.5,1.75,9.25-4,7.25-4.75S90.75,3,89,2a6.72,6.72,0,0,0-4-1c-1.25,0-4-1.25-2-2"/><path class="cls-2" d="M70.5,14.25c1.75.5,10.25,2.75,14.25,2.5s10.75-.5,11.75.25.25,2,.5,3.25,1,2.25,2.25,1,3.75-2,5-1.5,3.5,1.25,3.25,0-2.75-3.25-1.5-5.5,7-6.5,6.5-4.25-1.25,5.25.5,4.5,5-2,8-1.5"/><path class="cls-2" d="M70.75,11.5c3,1.5,9.5,4,16,3.75S93,13.5,91.5,13.5s.25-2.5,2.25-2.5,4.5,1.5,4.75,3.25,1,3,2.25,2.75,1-1,2.75-4,2.5-3,4-4.75,1.5,0,2.25.25S116,7.75,116,9s-3.75,3-2,3,9.75-1.5,11.5-.75"/><path class="cls-2" d="M-5.25,68.75c3.86-2.44,6-7,10.5-8.5-.15,1-.1,2.3.62,2.85,1.17.9,2.41.62,3.88.15,1-3.21,3.09-7.29,7-6.4,1.39.32,1.32,2,2.14,2.77s2.23,1.68,3.27,1a22.22,22.22,0,0,1,3.63-1.79c.73-.34.2-1.31,1-1.57,1.88-.64,2.18,1.36,3.51,2a15.77,15.77,0,0,0,.51,5.5c.7,2.33,3.38,1.62,5,.5-.31-.26.63-1.75.5-3.37.51-3.66-1.72-6.92,2.1-8.37s7.87-.39,11.87-1a9.33,9.33,0,0,0,3.44-1c1.35-.81,2.55-1.91,4.09-2.34.2.78,1.38.2,1.46,1,.22,2.18,1.65,3.67,2.75,5.36A3.27,3.27,0,0,0,63.14,57c.87.41.74,2.1,1.11,3.26"/><path class="cls-2" d="M77.25,60.25c-4.47,1.48-6.64,6.06-10.5,8.5a4.49,4.49,0,0,1-3.93.76c-1.24-.34-.4-2.08-.55-3.26-.18-1.47,1.57-.88,2.17-1.88A3.09,3.09,0,0,0,65,61.63"/><path class="cls-2" d="M-2.63,62.38a28.32,28.32,0,0,0,4.51-2.25c.08-.86.82-1.39,1-2.25.05-.2.38-.25.4-.29a2.9,2.9,0,0,1,3.82-1.71c.38.16.18.87.76.75,0,.25.08.6,0,.69a3.21,3.21,0,0,0-1.07,3.52,1.29,1.29,0,0,0,2.12.79,7.51,7.51,0,0,1,3.33-6.89c1.2-.87,2.72-.7,4.17-.61-.08.55.36.09.5.25"/><path class="cls-2" d="M69.37,62.38a27.8,27.8,0,0,0,4.5-2.25"/><path class="cls-2" d="M68.37,63.88c-.84.45-1.07,1.44-1.59,2.18-.11.16-.45.18-.41.57-.53-.13-1,.41-1.49.23a.44.44,0,0,1-.21-.69c.36-.32.26-.89.48-.94.73-.19.27-1.15,1-1.1a9,9,0,0,0,.12-4.47c-.5-1.88-1.63-3.49-2.37-5.28"/><path class="cls-2" d="M63,53c-1.75-2.25-3-3.5-3.25-4.75S59.25,46,58,46s-2.25,1.5-4.25,2.5-9.25,2.25-11.25,2-6-1-7-.25-1.75,4.25-1.75,6.25.25,4.75,0,5.75-1.75,2.75-2-.5-.5-4.75-2.25-6.5-4.75-2.75-5-1.5.75,2.25.25,2.75a4.61,4.61,0,0,1-3.25,1c-1-.25-1.5-1-2.25-1.5"/><path class="cls-2" d="M-2.25,58.75c1.75-.25,3.75-2.5,5.25-4s3-2.5,4.5-2.25,1,3.25,3.25.25S14.5,50.75,16,51s5,2,6.25.5-2-6,.25-6.25,3.25,3.25,5.25,4.5,3,2.75,4.25.75,3.25-3.75,5.5-3a12.19,12.19,0,0,0,5,.75"/><path class="cls-2" d="M45.75,48c1.5-.25,6.25-1,7.5-2.25s-1.75-5-.25-5.5,5.5.25,7,1.5,2.75,5,3.25,7.25S67,53.75,67.5,55.5s0,4.5.5,5,1-1.5,1.75-1.75c1.68-.56,3.75-2.5,5.25-4"/><path class="cls-2" d="M75,52c-1.5,1.5-3.5.5-7.5-.5,0,0-2.25-1-2.5-6.5s-3.75-6.75-6.25-7.5S46,35.5,45.25,37s3.75,3.5,4.5,5-.25,3.75-2,3.5S46,42.75,44.5,42s-5.5-1-5.75,1.25S34.5,45.5,34.5,45.5c-2.5-.5-3,4-5,4S27,45,25,43c-1-1-2.75-1.25-4.69-1.25"/><path class="cls-2" d="M17.26,41.88c-1,.06-1.91.12-2.76.12-3.5,0-4,2.5-1.5,3s4.5,2.5,6.5,4S18,50,16,49s-3,0-5.5,2-1.5-.5-3-1-3,.5-4.5,2-3.5.5-7.5-.5"/><path class="cls-2" d="M-3.25,48.25C-1.75,49,0,50.5,2,49.5s3.25-2.5,4.5-2,2.5,2.25,4,1.25,3.25-.75,1.5-2.5-5.25-3-4-4S11.75,39,14.5,39s15-2.25,14.5.25-1.75,8.25,0,7.25,3.25-2.75,4.75-2.75S36.5,43.5,37,41s3-3.75,4-2.75,2.5,2.25,2.25.5.5-4.5,4-4.25l1.74.13"/><path class="cls-2" d="M51,34.81c4.19.41,9.73,1.15,11.76,2.44,2.75,1.75,4.5,6,4.75,8.5"/><path class="cls-2" d="M68.75,48.25C70.25,49,72,50.5,74,49.5"/><path class="cls-2" d="M12.75,74c-2.75.25-7-.25-6-3s7.5-4.5,8.25-6,2.75-1.75,3.75.25,3.75,5.25,5,5.75S28,74,27,75.75"/><path class="cls-2" d="M33.75,76c-.5-1.25-1.75-3.25,0-4.5s10.25-3.75,12-2.75,1.75,2,.5,3.25-6.5,1.25-5.75,2.5"/><path class="cls-2" d="M-2.75,69.25c1-1.25,2.75-3,4.5-4.75s2.75-1.25,3,.25S5.5,67.25,7,67s5.5-3,6-5.25S14.75,58,16,59s2,4,4.25,4,7.5-4.75,7.75-3-.5,4,.25,6.5,2.5,2.5,5,1.5,4.5-2,4.75-3.5"/><path class="cls-2" d="M69.25,69.25c1-1.25,2.75-3,4.5-4.75"/><path class="cls-2" d="M4.25,73.5s-4-3.5-2-4,4,0,6-1.25,5.25-3.25,6-4.75S16,61,16.75,62a7.1,7.1,0,0,0,3.75,2.5c1.75.5,3-1,3.75.75s0,4.5,1.75,5,3.75,1,3.5,2.75"/><path class="cls-2" d="M30.25,75.75c.5-1.25,0-4,1.5-5s6.25-2.75,7-4,3.93-1.88,6-2"/><path class="cls-2" d="M46.5,64.75c.23.18,1.94.19,2.25.75,1.25,2.25,1.5,6.25-.25,7.5"/><path class="cls-2" d="M51.75,72.75c.75-2.25,2.25-8.75.75-9.5s-4.75-1.5-2.75-3.5S55.5,56,56.5,56.5,61,60,60.25,61.75A18.65,18.65,0,0,1,58,65.5c-1,1.5-1,4.5.25,5.75S60.75,72,61,73.5"/><path class="cls-2" d="M38.25,62.75c0-1.25-.5-2.5.25-4.5s2.75-3,3-1.5-1.5,4.75,0,5,2.5.5,3.25-1-1.25-3.25,0-4.25S51,53.75,52.5,54.25s2.75-.25,3.75-.5"/><path class="cls-2" d="M58,53.75c1-.25,2.25,1.5,2.5,3S62.75,59.5,63,60.5s-2.25,5-2.75,6.25a3.64,3.64,0,0,0,1,4c1.25,1.25,1.5,3.75,2.75,3S66.75,71.5,67.5,71"/><path class="cls-2" d="M54,73.25c.75-.5.75-1,.5-3s.75-6.75,0-7.75-1.5-3,0-2.5c.82.27,2.51-.09,2.75,1.38.19,1.19-1,4.19-1,4.87,0,1.5-.38,5.6-.38,6.88"/><path class="cls-2" d="M-3.75,3.5c2.25-.5,7,0,6,1.75s4,7,4.5,5.5-2-4.5.75-4.75S13.25,9,15,9.25s5.5-1.5,3.25-3S15.5,1.75,12.75,2s-7-.25-6-3"/><path class="cls-2" d="M23.75-1C25-.5,28,2,27,3.75S26.5,7,28,7.25s6.25-2,5.75-3.25S32,.75,33.75-.5"/><path class="cls-2" d="M45.75-3.25c1.75,1,1.75,2,.5,3.25s-6.5,1.25-5.75,2.5,5,4,7.75,4,3-3.5,4.75-4"/><path class="cls-2" d="M54,1.25c.75-.5.75-1,.5-3"/><path class="cls-2" d="M56.25-5.75c0,1.5-.38,5.6-.38,6.88A2.71,2.71,0,0,0,56.37,3"/><path class="cls-2" d="M-1.5,44.75c1.75,1,2,2,4,1.25S5,45,5,45c2,1,3.5,1.5,3.25.5-.86-3.43-5.77-3-5-4.25C4.5,39.25,8.5,39,10,37s-.5-3.75,1.75-4.75,5.5,1,6.25,2.25,4.5,2.25,7.5,1.5,7.25-2,6.75.5S31,42.25,32.5,41s5.25-8.5,7.5-8.25,3.25,0,6.25-.25,9.5.5,9.25-2-4.75-8.25-1-8.25a10.78,10.78,0,0,1,5.24,1.52"/><path class="cls-2" d="M62.41,26.05A5.4,5.4,0,0,1,63.5,28.5c.5,3.5.25,5.75,2.25,7"/><path class="cls-2" d="M70.5,44.75c1.75,1,2,2,4,1.25"/><path class="cls-2" d="M67,36.25a7.58,7.58,0,0,1,2,4c0,1-.5,2.25.25,3.25"/><path class="cls-2" d="M-2.75,1c1.75.5,5.5.25,6,1.75S6,5.5,6,4.25,4.25,1.5,4.25,1.5s-4-3.5-2-4"/><path class="cls-2" d="M26-1.75c1.75.5,3.75,1,3.5,2.75s.25,4,.75,2.75,0-4,1.5-5"/><path class="cls-2" d="M48.75-6.5C50-4.25,50.25-.25,48.5,1s-3,3-1.5,2.75,4-.75,4.75-3S54-8,52.5-8.75"/><path class="cls-2" d="M58-6.5C57-5,57-2,58.25-.75S60.75,0,61,1.5s1.5,3.25,2.5,3.25S66,2.75,66.75,2a3.9,3.9,0,0,1,2.5-1c1.75.5,5.5.25,6,1.75"/><path class="cls-2" d="M-2.5,36c1.25.5,3.25,2.25,4,1.25s-8-3-.5-4.75,6.25-1,7.25-3.5-6.5-3.25-4.5-4.5,9.33-3,11.75-1.75c3,1.5,1.5,3.75,1.75,4.5s-1,4.75,2.5,6,5,2.5,8,.75,7-3.25,7-2-.25,2,2.5.25S44.5,29,47,29.25s5-.5,4-2.25-3.75-2.75-5-4.75.75-3.25,3.25-3.5S61.25,19.5,63,21s2.25,5.5,2.25,8-1,3.25,1.75,5.25"/><path class="cls-2" d="M69.5,36c1.25.5,3.25,2.25,4,1.25s-8-3-.5-4.75"/><path class="cls-2" d="M-2.25,30A8.32,8.32,0,0,0,3,29.5c1-.5-2.5-3-4.75-3.75"/><path class="cls-2" d="M-1.75,20.75c3.75-.5,7.25-1.5,9.75-1s7.75-.5,9.75,3"/><path class="cls-2" d="M69.75,30A8.32,8.32,0,0,0,75,29.5c1-.5-2.5-3-4.75-3.75s-3.75-4.5,0-5,7.25-1.5,9.75-1"/><path class="cls-2" d="M68.5,29.75a4.54,4.54,0,0,1-2-4c0-1.75-2-7.5-5-7.75s-20.25-2-20.75.25,3.25,4.5,4,5.5.5,3.25-.75,3.5-4,1-3.75-.5-1-3.25-2.5-1.5c-.75.88-2.66,1.5-3.75,2.25"/><path class="cls-2" d="M32.25,28.75a11,11,0,0,1-6.75,3c-2,0-6.25-.5-6-2.75s.25-3.25-.25-4.25"/><path class="cls-2" d="M-1.5,16.75c3.5.5,10.75,2,12.5,2,.55,0,1.78,0,3.25.06"/><path class="cls-2" d="M18.24,19.11c2,.24,3.74.67,4.26,1.39,1.25,1.75-.25,4.75-.75,6.25s-1,2.75.5,2.75,6.75.25,6-1.25S25,26,25.75,24.5s7-2.5,8.25-2.25,3.75,1.25,4.75.25S38,21,38.5,19"/><path class="cls-2" d="M70.5,16.75c3.5.5,10.75,2,12.5,2"/><path class="cls-2" d="M39.5,17.5c2-1,3.25-2.25,7.75-2s17.5,1.25,18,2.25,2,1.75,2.5.5A2.44,2.44,0,0,1,69,16.75"/><path class="cls-2" d="M-1,8.25A21.39,21.39,0,0,0,4.5,12c2,1,5,2,5.25.75S7,9.5,8.75,9.5s3.25,2,6.5,1.75,9.25-4,7.25-4.75S18.75,3,17,2a6.72,6.72,0,0,0-4-1C11.75,1,9-.25,11-1"/><path class="cls-2" d="M22.25-.5c1,2,2.25,3.25,2.5,5s-.5,4.75,2,4.75a12.93,12.93,0,0,0,2-.16"/><path class="cls-2" d="M30.81,8.59A8.42,8.42,0,0,0,34.5,6.25c2-2.25.25-2.75.5-4s6-4,7-3.25S40.75-1,39.75.75s-4.25,6.25,1,6.5S47,8.5,47.25,9.5s5,.75,5-.5,1.5-6,2-4.75a10.35,10.35,0,0,0,5,5"/><path class="cls-2" d="M71,8.25A21.39,21.39,0,0,0,76.5,12"/><path class="cls-2" d="M68.25,3.5c2.25-.5,7,0,6,1.75"/><path class="cls-2" d="M58,4c.75,1,3.25,2.25,4,3.25s2.25,2.5,3,.75-.25-3.5,1.5-4"/><path class="cls-2" d="M70.25,7.5C68.75,6,67,5.25,67,6.25S69.75,8,68.75,9.5s-5,2.5-6.5,1.75S60.5,10,60.5,10"/><path class="cls-2" d="M-1.5,14.25c1.75.5,10.25,2.75,14.25,2.5s10.75-.5,11.75.25.25,2,.5,3.25,1,2.25,2.25,1,3.75-2,5-1.5,3.5,1.25,3.25,0-2.75-3.25-1.5-5.5,7-6.5,6.5-4.25-1.25,5.25.5,4.5,5-2,8-1.5"/><path class="cls-2" d="M70.5,14.25c1.75.5,10.25,2.75,14.25,2.5"/><path class="cls-2" d="M68.75,14c-1.5-.5-3.61-.2-3.25,1,.75,2.5-3.25-.25-6-.75a51.29,51.29,0,0,0-7-.75"/><path class="cls-2" d="M-1.25,11.5c3,1.5,9.5,4,16,3.75S21,13.5,19.5,13.5s.25-2.5,2.25-2.5,4.5,1.5,4.75,3.25,1,3,2.25,2.75,1-1,2.75-4,2.5-3,4-4.75,1.5,0,2.25.25S44,7.75,44,9s-3.75,3-2,3,9.75-1.5,11.5-.75"/><path class="cls-2" d="M70.75,11.5c3,1.5,9.5,4,16,3.75"/><path class="cls-2" d="M70.25,11.25c-2-.87-4.25,2.25-7,1.75S58.5,12,57,11.75a15.43,15.43,0,0,0-2.25-.25"/><path class="cls-2" d="M13,73c-1.25,0-4-1.25-2-2,2.75-2,9.5-2.25,11.25.5,1,2,2.25,3.25,2.5,5"/><path class="cls-2" d="M35,74.25c.25-1.25,6-4,7-3.25s-1.25,0-2.25,1.75"/><path class="cls-2" d="M61.25-1.25C62.5,0,62.75,2.5,64,1.75S66.75-.5,67.5-1"/><path class="cls-2" d="M5.25,60.25c-4.47,1.48-6.64,6.06-10.5,8.5a4.49,4.49,0,0,1-3.93.76c-1.24-.34-.4-2.08-.55-3.26-.18-1.47,1.57-.88,2.17-1.88A3.09,3.09,0,0,0-7,61.63"/><path class="cls-2" d="M-2.63,62.38a28.32,28.32,0,0,0,4.51-2.25"/><path class="cls-2" d="M-26.25,48c1.5-.25,6.25-1,7.5-2.25s-1.75-5-.25-5.5,5.5.25,7,1.5,2.75,5,3.25,7.25S-5,53.75-4.5,55.5s0,4.5.5,5,1-1.5,1.75-1.75c1.68-.56,3.75-2.5,5.25-4"/><path class="cls-2" d="M3,52c-1.5,1.5-3.5.5-7.5-.5,0,0-2.25-1-2.5-6.5s-3.75-6.75-6.25-7.5-12.75-2-13.5-.5,3.75,3.5,4.5,5-.25,3.75-2,3.5S-26,42.75-27.5,42s-5.5-1-5.75,1.25S-37.5,45.5-37.5,45.5c-2.5-.5-3,4-5,4S-45,45-47,43c-1-1-2.75-1.25-4.69-1.25"/><path class="cls-2" d="M-3.25,48.25C-1.75,49,0,50.5,2,49.5"/><path class="cls-2" d="M-2.75,69.25c1-1.25,2.75-3,4.5-4.75"/><path class="cls-2" d="M-1.5,44.75c1.75,1,2,2,4,1.25"/><path class="cls-2" d="M-14-6.5C-15-5-15-2-13.75-.75S-11.25,0-11,1.5s1.5,3.25,2.5,3.25S-6,2.75-5.25,2a3.9,3.9,0,0,1,2.5-1c1.75.5,5.5.25,6,1.75"/><path class="cls-2" d="M-2.5,36c1.25.5,3.25,2.25,4,1.25s-8-3-.5-4.75"/><path class="cls-2" d="M-2.25,30A8.32,8.32,0,0,0,3,29.5c1-.5-2.5-3-4.75-3.75s-3.75-4.5,0-5,7.25-1.5,9.75-1"/><path class="cls-2" d="M-1.5,16.75c3.5.5,10.75,2,12.5,2"/><path class="cls-2" d="M-1,8.25A21.39,21.39,0,0,0,4.5,12"/><path class="cls-2" d="M-3.75,3.5c2.25-.5,7,0,6,1.75"/><path class="cls-2" d="M-1.5,14.25c1.75.5,10.25,2.75,14.25,2.5"/><path class="cls-2" d="M-1.25,11.5c3,1.5,9.5,4,16,3.75"/><path class="cls-2" d="M12.75,2c-2.75.25-7-.25-6-3S14.25-5.5,15-7s2.75-1.75,3.75.25S22.5-1.5,23.75-1,28,2,27,3.75"/><path class="cls-2" d="M33.75,4c-.5-1.25-1.75-3.25,0-4.5S44-4.25,45.75-3.25s1.75,2,.5,3.25-6.5,1.25-5.75,2.5"/><path class="cls-2" d="M4.25,1.5s-4-3.5-2-4,4,0,6-1.25S13.5-7,14.25-8.5,16-11,16.75-10A7.1,7.1,0,0,0,20.5-7.5c1.75.5,3-1,3.75.75s0,4.5,1.75,5,3.75,1,3.5,2.75"/><path class="cls-2" d="M30.25,3.75c.5-1.25,0-4,1.5-5s6.25-2.75,7-4,3.93-1.88,6-2"/><path class="cls-2" d="M46.5-7.25c.23.18,1.94.19,2.25.75C50-4.25,50.25-.25,48.5,1"/><path class="cls-2" d="M51.75.75C52.5-1.5,54-8,52.5-8.75s-4.75-1.5-2.75-3.5S55.5-16,56.5-15.5,61-12,60.25-10.25A18.65,18.65,0,0,1,58-6.5C57-5,57-2,58.25-.75S60.75,0,61,1.5"/><path class="cls-2" d="M58-18.25c1-.25,2.25,1.5,2.5,3S62.75-12.5,63-11.5s-2.25,5-2.75,6.25a3.64,3.64,0,0,0,1,4C62.5,0,62.75,2.5,64,1.75S66.75-.5,67.5-1"/><path class="cls-2" d="M54,1.25c.75-.5.75-1,.5-3s.75-6.75,0-7.75-1.5-3,0-2.5c.82.27,2.51-.09,2.75,1.37.19,1.2-1,4.2-1,4.88,0,1.5-.38,5.6-.38,6.88"/><path class="cls-2" d="M13,1C11.75,1,9-.25,11-1c2.75-2,9.5-2.25,11.25.5,1,2,2.25,3.25,2.5,5"/><path class="cls-2" d="M35,2.25c.25-1.25,6-4,7-3.25S40.75-1,39.75.75"/></pattern></defs><title>Asset 8</title><g class="cls-3"><g id="Layer_2" data-name="Layer 2"><g id="Layer_1-2" data-name="Layer 1"><g class="cls-4"><rect x="7.77" y="9.32" width="54.28" height="69.51"/><rect x="44.79" y="9.32" width="17.27" height="69.51"/><rect x="19.68" y="9.32" width="17.27" height="69.51"/><polygon class="cls-5" points="62.05 13.34 62.05 11.32 39.02 11.32 39.02 9.32 33.28 9.32 33.28 11.32 7.77 11.32 7.77 13.34 33.28 13.34 33.28 24.82 7.77 24.82 7.77 26.84 33.28 26.84 33.28 38.32 7.77 38.32 7.77 40.34 33.28 40.34 33.28 51.82 7.77 51.82 7.77 53.84 33.28 53.84 33.28 65.31 7.77 65.31 7.77 67.33 33.28 67.33 33.28 78.83 39.02 78.83 39.02 67.33 62.05 67.33 62.05 65.31 39.02 65.31 39.02 53.84 62.05 53.84 62.05 51.82 39.02 51.82 39.02 40.34 62.05 40.34 62.05 38.32 39.02 38.32 39.02 26.84 62.05 26.84 62.05 24.82 39.02 24.82 39.02 13.34 62.05 13.34"/><rect x="7" y="9.32" width="55.83" height="2.02"/><rect x="7" y="76.81" width="55.83" height="2.02"/><rect x="7" y="63.31" width="55.83" height="2.02"/><rect x="7" y="49.82" width="55.83" height="2.02"/><rect x="7" y="36.32" width="55.83" height="2.02"/><rect x="7" y="22.82" width="55.83" height="2.02"/><rect x="33.23" y="7" width="3.36" height="74.15"/><circle cx="87.72" cy="27.49" r="18.16" transform="translate(6.26 70.08) rotate(-45)"/><path d="M91.12,42.77a1.5,1.5,0,0,1,1-1.9h0a1.5,1.5,0,0,1,1.89.95h0a1.53,1.53,0,0,1-1,1.9h0a1.47,1.47,0,0,1-.46.07h0A1.49,1.49,0,0,1,91.12,42.77Zm-17.2-5.22a1.5,1.5,0,0,1,.33-2.1h0a1.49,1.49,0,0,1,2.09.33h0a1.5,1.5,0,0,1-.33,2.1h0a1.5,1.5,0,0,1-.88.29h0A1.5,1.5,0,0,1,73.92,37.55Zm27.87-10.06h0v-.07h0a1.5,1.5,0,0,1,1.49-1.5h0a1.5,1.5,0,0,1,1.51,1.5h0v0h0v0h0a1.5,1.5,0,0,1-1.5,1.5h0A1.5,1.5,0,0,1,101.79,27.49ZM74.21,19.58a1.49,1.49,0,0,1-.33-2.09h0A1.49,1.49,0,0,1,76,17.15h0a1.5,1.5,0,0,1,.33,2.1h0a1.5,1.5,0,0,1-1.21.62h0A1.52,1.52,0,0,1,74.21,19.58ZM92,14.08h0a1.49,1.49,0,0,1-1-1.88h0a1.49,1.49,0,0,1,1.89-1h0a1.5,1.5,0,0,1,1,1.89h0a1.51,1.51,0,0,1-1.43,1h0A1.48,1.48,0,0,1,92,14.08Z"/><path d="M87.72,43.56a16.08,16.08,0,1,1,16.07-16.07A16.09,16.09,0,0,1,87.72,43.56Zm0-31.15a15.08,15.08,0,1,0,15.07,15.08A15.09,15.09,0,0,0,87.72,12.41Z"/><circle cx="87.72" cy="27.49" r="13.35" transform="translate(6.26 70.08) rotate(-45)"/><circle class="cls-6" cx="87.72" cy="27.49" r="13.35" transform="translate(6.26 70.08) rotate(-45)"/><path class="cls-5" d="M76.7,29.82A13.34,13.34,0,0,1,98.24,19.29,13.34,13.34,0,1,0,79.53,38,13.24,13.24,0,0,1,76.7,29.82Z"/><circle cx="77.52" cy="58.44" r="7.96" transform="translate(-18.62 71.93) rotate(-45)"/><path d="M83.15,58.44a5.63,5.63,0,1,1-5.63-5.63A5.63,5.63,0,0,1,83.15,58.44Z"/><rect x="14.42" y="78.83" width="15.73" height="0.85"/><rect x="39.68" y="78.83" width="15.73" height="0.85" transform="translate(95.09 158.51) rotate(180)"/><rect x="29.41" y="14.52" width="1.48" height="1.48"/><rect x="29.41" y="16.88" width="1.48" height="1.48"/><rect x="29.41" y="19.24" width="1.48" height="1.48"/><rect x="38.94" y="14.52" width="1.48" height="1.48"/><rect x="38.94" y="16.88" width="1.48" height="1.48"/><rect x="38.94" y="19.24" width="1.48" height="1.48"/></g><rect class="cls-7" x="0.77" y="2.32" width="54.28" height="69.51"/><rect class="cls-8" x="37.79" y="2.32" width="17.27" height="69.51"/><rect class="cls-9" x="12.68" y="2.32" width="17.27" height="69.51"/><polygon class="cls-10" points="55.05 6.34 55.05 4.32 32.02 4.32 32.02 2.32 26.28 2.32 26.28 4.32 0.77 4.32 0.77 6.34 26.28 6.34 26.28 17.82 0.77 17.82 0.77 19.84 26.28 19.84 26.28 31.32 0.77 31.32 0.77 33.34 26.28 33.34 26.28 44.82 0.77 44.82 0.77 46.84 26.28 46.84 26.28 58.31 0.77 58.31 0.77 60.33 26.28 60.33 26.28 71.83 32.02 71.83 32.02 60.33 55.05 60.33 55.05 58.31 32.02 58.31 32.02 46.84 55.05 46.84 55.05 44.82 32.02 44.82 32.02 33.34 55.05 33.34 55.05 31.32 32.02 31.32 32.02 19.84 55.05 19.84 55.05 17.82 32.02 17.82 32.02 6.34 55.05 6.34"/><rect class="cls-11" y="2.32" width="55.83" height="2.02"/><rect class="cls-11" y="69.81" width="55.83" height="2.02"/><rect class="cls-11" y="56.31" width="55.83" height="2.02"/><rect class="cls-11" y="42.82" width="55.83" height="2.02"/><rect class="cls-11" y="29.32" width="55.83" height="2.02"/><rect class="cls-11" y="15.82" width="55.83" height="2.02"/><rect class="cls-12" x="26.23" width="3.36" height="74.15"/><circle class="cls-12" cx="80.72" cy="20.49" r="18.16" transform="translate(9.16 63.08) rotate(-45)"/><path class="cls-13" d="M84.12,35.77a1.5,1.5,0,0,1,1-1.9h0a1.5,1.5,0,0,1,1.89.95h0a1.53,1.53,0,0,1-1,1.9h0a1.47,1.47,0,0,1-.46.07h0A1.49,1.49,0,0,1,84.12,35.77Zm-17.2-5.22a1.5,1.5,0,0,1,.33-2.1h0a1.49,1.49,0,0,1,2.09.33h0a1.5,1.5,0,0,1-.33,2.1h0a1.5,1.5,0,0,1-.88.29h0A1.5,1.5,0,0,1,66.92,30.55ZM94.79,20.49h0v-.07h0a1.5,1.5,0,0,1,1.49-1.5h0a1.5,1.5,0,0,1,1.51,1.5h0v0h0v0h0a1.5,1.5,0,0,1-1.5,1.5h0A1.5,1.5,0,0,1,94.79,20.49ZM67.21,12.58a1.49,1.49,0,0,1-.33-2.09h0A1.49,1.49,0,0,1,69,10.15h0a1.5,1.5,0,0,1,.33,2.1h0a1.5,1.5,0,0,1-1.21.62h0A1.52,1.52,0,0,1,67.21,12.58ZM85,7.08h0a1.49,1.49,0,0,1-1-1.88h0a1.49,1.49,0,0,1,1.89-1h0a1.5,1.5,0,0,1,1,1.89h0a1.51,1.51,0,0,1-1.43,1h0A1.48,1.48,0,0,1,85,7.08Z"/><path class="cls-13" d="M80.72,36.56A16.08,16.08,0,1,1,96.79,20.49,16.09,16.09,0,0,1,80.72,36.56Zm0-31.15A15.08,15.08,0,1,0,95.79,20.49,15.09,15.09,0,0,0,80.72,5.41Z"/><circle class="cls-14" cx="80.72" cy="20.49" r="13.35" transform="translate(9.16 63.08) rotate(-45)"/><circle class="cls-15" cx="80.72" cy="20.49" r="13.35" transform="translate(9.16 63.08) rotate(-45)"/><path class="cls-10" d="M69.7,22.82A13.34,13.34,0,0,1,91.24,12.29,13.34,13.34,0,1,0,72.53,31,13.24,13.24,0,0,1,69.7,22.82Z"/><circle class="cls-11" cx="70.52" cy="51.44" r="7.96" transform="translate(-15.72 64.93) rotate(-45)"/><path class="cls-13" d="M76.15,51.44a5.63,5.63,0,1,1-5.63-5.63A5.63,5.63,0,0,1,76.15,51.44Z"/><rect class="cls-13" x="7.42" y="71.83" width="15.73" height="0.85"/><rect class="cls-13" x="32.68" y="71.83" width="15.73" height="0.85" transform="translate(81.09 144.51) rotate(180)"/><rect class="cls-13" x="22.41" y="7.52" width="1.48" height="1.48"/><rect class="cls-13" x="22.41" y="9.88" width="1.48" height="1.48"/><rect class="cls-13" x="22.41" y="12.24" width="1.48" height="1.48"/><rect class="cls-13" x="31.94" y="7.52" width="1.48" height="1.48"/><rect class="cls-13" x="31.94" y="9.88" width="1.48" height="1.48"/><rect class="cls-13" x="31.94" y="12.24" width="1.48" height="1.48"/></g></g></g></svg>