<svg xmlns="http://www.w3.org/2000/svg" viewBox="0 0 71.09 71.29"><defs><style>.cls-1{fill:#f3aa43;}.cls-2{fill:#ef893a;}.cls-3{fill:#34a3c2;}.cls-4{fill:#42cdf5;}.cls-5{fill:#3ec1e6;}.cls-6{fill:#f8be49;}.cls-7{fill:#d5e5e6;}.cls-8{fill:#c5d5d6;}.cls-9{fill:#556566;}.cls-10{fill:#fff;}.cls-11{fill:#d53d33;}.cls-12{fill:#b51f18;}.cls-13{fill:#455556;}.cls-14{fill:#657576;}</style></defs><g id="Layer_2" data-name="Layer 2"><g id="illustrations"><path class="cls-1" d="M30,27.25c-12.27,10-26,3.32-26,3.32L2.14,55.1S42.26,17.3,30,27.25Z"/><path class="cls-2" d="M29.92,28.56c-12.27,10-26,3.32-26,3.32L2.06,56.42S42.19,18.61,29.92,28.56Z"/><path class="cls-1" d="M44.17,41.42c-10,12.27-3.32,26-3.32,26L16.31,69.28S54.12,29.15,44.17,41.42Z"/><path class="cls-2" d="M42.85,41.5c-10,12.27-3.31,26-3.31,26L15,69.35S52.81,29.23,42.85,41.5Z"/><path class="cls-3" d="M38.49,24.67l1.41-1.38.43-.41,1-.93.52-.48.9-.84.5-.46.92-.82.47-.42.94-.83.44-.37,1-.85.37-.31,1-.88.29-.23,1.13-.92.19-.16,1.22-1,.08-.07c3.18-2.5,6.19-4.68,8.87-6.52A20.94,20.94,0,0,1,58.4,4.26,75.89,75.89,0,0,0,34.71,19.88C19.18,35.42,10.27,51.71,14.83,56.26a4.23,4.23,0,0,0,2.6,1.15,15.86,15.86,0,0,1,1.05-4.88C21.08,45.23,28.38,34.79,38.49,24.67Z"/><path class="cls-4" d="M66.83,12.69a21.38,21.38,0,0,1-2.65-1.84A155.13,155.13,0,0,1,46.33,32.51c-10.11,10.12-20.55,17.41-27.85,20a15.86,15.86,0,0,0-1.05,4.88c6.54.76,20.44-7.69,33.78-21A75.89,75.89,0,0,0,66.83,12.69Z"/><path class="cls-5" d="M62.09,9a24,24,0,0,1-1.92-2.16c-2.68,1.83-5.69,4-8.87,6.51l-.08.07-1.22,1-.19.16-1.13.92-.29.23-1,.88-.37.31-1,.85-.44.37-.94.83-.47.42-.92.82-.5.46-.9.84L41.3,22l-1,.93-.43.41-1.41,1.38c-10.11,10.12-17.41,20.56-20,27.86,7.3-2.61,17.74-9.9,27.85-20A155.13,155.13,0,0,0,64.18,10.85h0A22.63,22.63,0,0,1,62.09,9Z"/><path class="cls-2" d="M70.91.1,71.08,0A74.91,74.91,0,0,0,58.4,4.26a20.94,20.94,0,0,0,1.77,2.56C65.86,2.91,70,.59,70.91.1Z"/><path class="cls-6" d="M64.18,10.85a21.38,21.38,0,0,0,2.65,1.84A74.14,74.14,0,0,0,71.09,0h0L70.91.1C70.42,1,68.09,5.15,64.18,10.85Z"/><path class="cls-1" d="M60.17,6.83A24,24,0,0,0,62.09,9a22.63,22.63,0,0,0,2.09,1.86h0C68.09,5.15,70.42,1,70.91.1,70,.58,65.87,2.91,60.17,6.83Z"/><path class="cls-7" d="M49.81,14.54l.19-.16Z"/><path class="cls-7" d="M48.39,15.69l.29-.23Z"/><path class="cls-7" d="M47,16.88l.37-.31Z"/><path class="cls-7" d="M42.72,20.63l.5-.46Z"/><path class="cls-7" d="M41.3,22l.52-.48Z"/><path class="cls-7" d="M39.9,23.29l.43-.41Z"/><path class="cls-7" d="M45.55,18.1l.44-.37Z"/><path class="cls-7" d="M44.14,19.35l.47-.42Z"/><path class="cls-7" d="M51.22,13.41l.08-.07Z"/><path class="cls-8" d="M43.22,20.17l.92-.82Z"/><path class="cls-8" d="M44.61,18.93l.94-.83Z"/><path class="cls-8" d="M40.33,22.88l1-.93Z"/><path class="cls-8" d="M41.82,21.47l.9-.84Z"/><path class="cls-8" d="M50,14.38l1.22-1Z"/><path class="cls-8" d="M38.49,24.67l1.41-1.38Z"/><path class="cls-8" d="M60.17,6.82c-2.68,1.84-5.69,4-8.87,6.52,3.18-2.5,6.19-4.68,8.87-6.51Z"/><path class="cls-8" d="M48.68,15.46l1.13-.92Z"/><path class="cls-8" d="M47.34,16.57l1-.88Z"/><path class="cls-8" d="M46,17.73l1-.85Z"/><path class="cls-7" d="M70.91.1c-.89.49-5,2.81-10.74,6.72h0C65.87,2.91,70,.58,70.91.1Z"/><path class="cls-7" d="M42.55,35.82a5,5,0,1,1,0-7.09A5,5,0,0,1,42.55,35.82Z"/><path class="cls-9" d="M34.82,36.47a5.93,5.93,0,1,1,8.38,0A5.93,5.93,0,0,1,34.82,36.47Zm7.09-7.09a4.1,4.1,0,1,0,0,5.8A4.1,4.1,0,0,0,41.91,29.38Z"/><path class="cls-10" d="M42,33.8A2,2,0,1,1,42,31,2,2,0,0,1,42,33.8Z"/><path class="cls-7" d="M52.89,25.48a5,5,0,1,1,0-7.09A5,5,0,0,1,52.89,25.48Z"/><path class="cls-9" d="M45.16,26.13a5.93,5.93,0,1,1,8.38,0A5.93,5.93,0,0,1,45.16,26.13ZM52.25,19a4.1,4.1,0,1,0,0,5.8A4.1,4.1,0,0,0,52.25,19Z"/><path class="cls-10" d="M52.3,23.46a2,2,0,1,1,0-2.83A2,2,0,0,1,52.3,23.46Z"/><path class="cls-7" d="M60.56,15.79a3.58,3.58,0,1,1,0-5.06A3.57,3.57,0,0,1,60.56,15.79Z"/><path class="cls-9" d="M55,16.25a4.23,4.23,0,1,1,6,0A4.23,4.23,0,0,1,55,16.25Zm5.06-5.06a2.93,2.93,0,1,0,0,4.14A2.93,2.93,0,0,0,60.1,11.19Z"/><path class="cls-10" d="M60.13,14.35a1.43,1.43,0,1,1,0-2A1.42,1.42,0,0,1,60.13,14.35Z"/><path class="cls-11" d="M0,71.29s8.19-.8,13.73-6.34l5.79-5.79-7.39-7.39L6.34,57.56C.8,63.1,0,71.29,0,71.29Z"/><path class="cls-12" d="M4.33,67a17.18,17.18,0,0,0,9.4-4.34l4-4-5.06-5.06-4,4A17.1,17.1,0,0,0,4.33,67Z"/><rect class="cls-13" x="13.77" y="47.6" width="6.32" height="13.11" rx="2.34" transform="translate(-33.32 27.81) rotate(-44.98)"/><rect class="cls-14" x="14.71" y="49.86" width="6.32" height="10.46" rx="2.34" transform="translate(-33.71 28.75) rotate(-44.98)"/><rect class="cls-9" x="13.87" y="50.21" width="6.32" height="8.08" rx="2.34" transform="translate(-33.37 27.94) rotate(-45)"/><polygon class="cls-1" points="28.56 46.99 5.51 65.58 24.1 42.53 31.85 39.24 28.56 46.99"/><polygon class="cls-2" points="31.85 39.24 5.51 65.58 24.1 42.53 31.85 39.24"/></g></g></svg>