<svg xmlns="http://www.w3.org/2000/svg" viewBox="0 0 60.98 60.55"><defs><style>.cls-1{fill:#3ec1e6;}.cls-2{fill:#34a3c2;}.cls-3{fill:#556566;}.cls-4{fill:#f3aa43;}.cls-5{fill:#f8be49;}.cls-6{fill:#f7b23f;}.cls-7{fill:#42cdf5;}.cls-8{fill:#d5e5e6;}.cls-9{fill:#e47e30;}.cls-10{fill:#fce2aa;}.cls-11{fill:#fff;}.cls-12{fill:#657576;}.cls-13{fill:#95a5a6;}.cls-14{fill:#859596;}</style></defs><g id="Layer_2" data-name="Layer 2"><g id="illustrations"><path class="cls-1" d="M32.37,9.15c-9.43,7.66-20,2.55-20,2.55L11,30.58S41.81,1.5,32.37,9.15Z"/><path class="cls-2" d="M32.32,10.16c-9.44,7.66-20,2.55-20,2.55L10.89,31.59S41.75,2.5,32.32,10.16Z"/><path class="cls-1" d="M51.73,28.5c-7.66,9.44-2.55,20-2.55,20L30.3,49.93S59.38,19.07,51.73,28.5Z"/><path class="cls-2" d="M50.72,28.56c-7.66,9.44-2.55,20-2.55,20L29.3,50S58.37,19.13,50.72,28.56Z"/><path class="cls-3" d="M35.4,46.06a2.61,2.61,0,0,1-3.69,0L14.88,29.23a2.61,2.61,0,0,1,0-3.69h0a2.6,2.6,0,0,1,3.68,0L35.4,42.38a2.6,2.6,0,0,1,0,3.68Z"/><path class="cls-4" d="M52.22,4.41a26.19,26.19,0,0,1-2.18-3C43.18,2.85,34.42,6,27.81,12.6L14.63,25.79l5.87,5.87L33.69,18.48A90.22,90.22,0,0,1,52.22,4.41Z"/><path class="cls-5" d="M49.43,32c.16-.17.32-.35.47-.53q.54-.61,1.05-1.26l.44-.57.49-.66.45-.62c.14-.21.29-.42.42-.63l.42-.64c.15-.23.29-.46.42-.68s.25-.4.36-.61.14-.23.21-.35.22-.4.34-.6c.44-.8.86-1.61,1.24-2.43l.25-.55c.12-.25.23-.49.33-.73s.18-.4.25-.6c.29-.67.56-1.35.81-2,.14-.39.27-.77.41-1.15s.17-.5.25-.75.14-.43.2-.65c.21-.64.39-1.27.57-1.9l.3-1.13c.18-.71.34-1.4.48-2.08a25.16,25.16,0,0,1-3-2.1A90.76,90.76,0,0,1,42.5,27.3L29.32,40.48l5.83,5.83L48.34,33.13C48.71,32.75,49.08,32.37,49.43,32Z"/><path class="cls-6" d="M56.59,8.74a29.63,29.63,0,0,1-2.4-2.15,28.3,28.3,0,0,1-2-2.18A90.22,90.22,0,0,0,33.69,18.48L20.5,31.66l8.82,8.82L42.5,27.3A90.76,90.76,0,0,0,56.59,8.74Z"/><path class="cls-2" d="M60.84,0l.09,0A56.42,56.42,0,0,0,50,1.36a26.19,26.19,0,0,0,2.18,3.05A76.42,76.42,0,0,1,60.84,0Z"/><path class="cls-7" d="M59.59,10.84c.13-.58.25-1.14.35-1.69,0-.19.07-.38.1-.57.09-.49.17-1,.24-1.43s.1-.65.14-1c.23-1.58.35-2.92.42-3.95,0-.11,0-.22,0-.32.06-.9.08-1.52.08-1.78a76,76,0,0,1-4.35,8.6A25.16,25.16,0,0,0,59.59,10.84Z"/><path class="cls-8" d="M60.94,0V0s0,0,0,0h0l-.09,0Z"/><path class="cls-8" d="M61,.05h0v.1Z"/><path class="cls-1" d="M52.22,4.41a28.3,28.3,0,0,0,2,2.18,29.63,29.63,0,0,0,2.4,2.15A76,76,0,0,0,60.94.14V0h-.1A76.42,76.42,0,0,0,52.22,4.41Z"/><path class="cls-9" d="M0,60.55s11.43-1.11,19.17-8.85l8.08-8.08L16.93,33.3,8.85,41.38C1.11,49.12,0,60.55,0,60.55Z"/><path class="cls-4" d="M4.75,55.8s7.83-.76,13.13-6.06l5.54-5.54-7.07-7.07-5.54,5.54C5.51,48,4.75,55.8,4.75,55.8Z"/><path class="cls-10" d="M10.18,50.37a15.37,15.37,0,0,0,8.42-3.89l3.55-3.55L17.62,38.4,14.07,42A15.37,15.37,0,0,0,10.18,50.37Z"/><path class="cls-3" d="M41.41,19.7a6.76,6.76,0,1,1,9.56,0A6.78,6.78,0,0,1,41.41,19.7Zm8.09-8.09a4.68,4.68,0,1,0,0,6.62A4.7,4.7,0,0,0,49.5,11.61Z"/><path class="cls-8" d="M49.87,18.6a5.2,5.2,0,1,1,0-7.35A5.2,5.2,0,0,1,49.87,18.6Z"/><path class="cls-11" d="M49.56,15.86a1.72,1.72,0,1,1,0-2.43A1.72,1.72,0,0,1,49.56,15.86Z"/><path class="cls-12" d="M29.13,46.86a2.4,2.4,0,0,1-3.38,0L14.19,35.3a2.4,2.4,0,0,1,0-3.38,2.39,2.39,0,0,1,3.38,0L29.13,43.48A2.4,2.4,0,0,1,29.13,46.86Z"/><path class="cls-13" d="M29.13,46.86a2.4,2.4,0,0,1-3.38,0l-7.94-7.94a2.39,2.39,0,0,1,3.38-3.38l7.94,7.94A2.4,2.4,0,0,1,29.13,46.86Z"/><path class="cls-14" d="M25.51,43.23a2.39,2.39,0,0,1-3.38,0l-4.32-4.32a2.39,2.39,0,0,1,3.38-3.38l4.32,4.32A2.38,2.38,0,0,1,25.51,43.23Z"/><polygon class="cls-1" points="35.9 30.45 14.04 46.62 30.21 24.76 38.1 22.56 35.9 30.45"/><polygon class="cls-2" points="38.1 22.56 14.04 46.62 30.21 24.76 38.1 22.56"/></g></g></svg>