<svg xmlns="http://www.w3.org/2000/svg" viewBox="0 0 52.65 53.03"><defs><style>.cls-1{fill:#d53d33;}.cls-2{fill:#c52e25;}.cls-3{fill:#fd6d60;}.cls-4{fill:#fd8c7f;}.cls-5{fill:#3ec1e6;}.cls-6{fill:#42cdf5;}.cls-7{fill:#b5c5c6;}.cls-8{fill:#d5e5e6;}.cls-9{fill:#fff;}</style></defs><g id="Layer_2" data-name="Layer 2"><g id="illustrations"><path class="cls-1" d="M32.3,10.1,20.58,12.36A.49.49,0,0,1,20,12a6.41,6.41,0,0,0-7.44-5,.42.42,0,0,1-.27,0A.49.49,0,0,1,12,6.58h0a.5.5,0,0,1,.4-.58L24,3.75A7.46,7.46,0,0,1,32.7,9.51h0a.54.54,0,0,1-.08.37A.45.45,0,0,1,32.3,10.1Z"/><path class="cls-2" d="M32,10.16l-11.43,2.2A.49.49,0,0,1,20,12a6.41,6.41,0,0,0-7.44-5,.42.42,0,0,1-.27,0L23.44,4.79A7.46,7.46,0,0,1,32,10.16Z"/><path class="cls-1" d="M42.43,20.23,40.18,32a.5.5,0,0,0,.38.58,6.39,6.39,0,0,1,5,7.43.45.45,0,0,0,0,.28.46.46,0,0,0,.36.3h0a.48.48,0,0,0,.58-.39l2.25-11.65A7.48,7.48,0,0,0,43,19.84h0a.48.48,0,0,0-.37.07A.55.55,0,0,0,42.43,20.23Z"/><path class="cls-2" d="M42.38,20.53,40.18,32a.5.5,0,0,0,.38.58,6.39,6.39,0,0,1,5,7.43.45.45,0,0,0,0,.28L47.74,29.1A7.46,7.46,0,0,0,42.38,20.53Z"/><path class="cls-3" d="M28.71,31.82c-1.13-1.13-4.36.15-8.16,3a2.65,2.65,0,0,0-.1-2.21,2.68,2.68,0,0,0-2.21-.1c2.82-3.79,4.1-7,3-8.16C19.6,22.7,13.65,26,7.94,31.74A30.35,30.35,0,0,0,.52,45a26.79,26.79,0,0,0,3.82-1.29A31.89,31.89,0,0,0,0,53a31.61,31.61,0,0,0,9.3-4.34A27.23,27.23,0,0,0,8,52.52,30.47,30.47,0,0,0,21.29,45.1C27,39.38,30.33,33.44,28.71,31.82Z"/><path class="cls-4" d="M34.14,26.39c-1.13-1.13-4.36.15-8.16,3a2.65,2.65,0,0,0-.1-2.21,2.69,2.69,0,0,0-2.21-.1c2.82-3.79,4.1-7,3-8.16-1.61-1.62-7.56,1.7-13.27,7.42A30.35,30.35,0,0,0,6,39.59,26.79,26.79,0,0,0,9.77,38.3a31.89,31.89,0,0,0-4.34,9.3,31.61,31.61,0,0,0,9.3-4.34,27.23,27.23,0,0,0-1.28,3.83,30.47,30.47,0,0,0,13.27-7.42C32.44,34,35.76,28,34.14,26.39Z"/><path class="cls-5" d="M40,33.13,26.86,46.31,6.34,25.79,19.52,12.61c5.85-5.85,13.38-9,19.78-10.67A58.55,58.55,0,0,1,52.64,0h0A58.36,58.36,0,0,1,50.7,13.37C49,19.77,45.89,27.29,40,33.13Z"/><path class="cls-6" d="M34.68,27.76,21.49,40.94l-9.78-9.78L24.89,18A80.89,80.89,0,0,1,41.41,5.43,75.82,75.82,0,0,1,52.64,0h0a76.17,76.17,0,0,1-5.43,11.24A80.77,80.77,0,0,1,34.68,27.76Z"/><path class="cls-7" d="M26.12,43.48a2.69,2.69,0,0,1-3.8,0L8.78,29.94a2.7,2.7,0,0,1,0-3.81h0a2.7,2.7,0,0,1,3.81,0L26.13,39.67a2.69,2.69,0,0,1,0,3.81Z"/><path class="cls-2" d="M5.43,33.11a2.07,2.07,0,0,1-1-.19,2.08,2.08,0,0,1-.51-.37c-1.68-1.69-1.12-6.76-.09-8.85l5.39-11a4.61,4.61,0,0,1,6.17-2.08,4.66,4.66,0,0,1,1.22.87,4.41,4.41,0,0,1,.7.91,4.54,4.54,0,0,1,.17,4.37l-5.39,11C11.09,29.73,7.78,33,5.43,33.11Z"/><path class="cls-1" d="M5.43,33.11a2,2,0,0,1-.75-.37l-.13-.12c-1.75-1.74,0-7.07,1.6-9l7.69-9.49a4.56,4.56,0,0,1,3.44-1.7,4.54,4.54,0,0,1,.17,4.37l-5.39,11C11.09,29.73,7.78,33,5.43,33.11Z"/><path class="cls-2" d="M18.79,46.47a2.09,2.09,0,0,0,.19,1,1.8,1.8,0,0,0,.37.5c1.68,1.69,6.75,1.13,8.85.09l11-5.39a4.59,4.59,0,0,0,2.09-6.16,4.34,4.34,0,0,0-1.78-1.92,4.59,4.59,0,0,0-4.38-.18l-11,5.4C22.16,40.81,18.92,44.12,18.79,46.47Z"/><path class="cls-1" d="M18.79,46.47a1.89,1.89,0,0,0,.36.74l.13.14c1.74,1.74,7.07,0,9-1.6l9.5-7.69a4.61,4.61,0,0,0,1.7-3.44,4.59,4.59,0,0,0-4.38-.18l-11,5.4C22.16,40.81,18.92,44.12,18.79,46.47Z"/><path class="cls-2" d="M17.12,41.32l-.05.06c-1.48,1.47-5.65,3.45-7.12,2l-.16-.18c-1.17-1.59.59-5.65,2-7.08L18.59,29l.05-.05a3.74,3.74,0,0,1,5.22-.06l.12.13a3.72,3.72,0,0,1,0,5.14Z"/><path class="cls-1" d="M17.12,41.32l-.05.06c-1.48,1.47-5.65,3.45-7.12,2l-.16-.18L24,29.05a3.72,3.72,0,0,1,0,5.14Z"/><path class="cls-2" d="M27.84,24.81a8.9,8.9,0,1,1,12.59,0A8.92,8.92,0,0,1,27.84,24.81ZM38.49,14.16a6.16,6.16,0,1,0,0,8.71A6.15,6.15,0,0,0,38.49,14.16Z"/><path class="cls-8" d="M39,23.36a6.85,6.85,0,1,1,0-9.69A6.84,6.84,0,0,1,39,23.36Z"/><path class="cls-9" d="M38.57,19.74a2.27,2.27,0,1,1,0-3.2A2.25,2.25,0,0,1,38.57,19.74Z"/><path class="cls-1" d="M50.7,13.37a23.5,23.5,0,0,1-3.48-2.12,26.38,26.38,0,0,1-3.11-2.67,26.09,26.09,0,0,1-2.7-3.15A23.17,23.17,0,0,1,39.3,1.94,58.55,58.55,0,0,1,52.64,0h0A58.36,58.36,0,0,1,50.7,13.37Z"/></g></g></svg>