<svg xmlns="http://www.w3.org/2000/svg" viewBox="0 0 72.68 73.2"><defs><style>.cls-1{fill:#fd6d60;}.cls-2{fill:#fd8c7f;}.cls-3{fill:#95a5a6;}.cls-4{fill:#b5c5c6;}.cls-5{fill:#a5b5b6;}.cls-6{fill:#d53d33;}.cls-7{fill:#c52e25;}.cls-8{fill:#657576;}.cls-9{fill:#d5e5e6;}.cls-10{fill:#fff;}.cls-11{fill:#f7b23f;}.cls-12{fill:#f3aa43;}</style></defs><g id="Layer_2" data-name="Layer 2"><g id="illustrations"><path class="cls-1" d="M7.59,56.66c-.71.6-1.44,1.26-2.17,2A20.83,20.83,0,0,0,.35,67.72,17.46,17.46,0,0,0,3,66.84,21.61,21.61,0,0,0,0,73.2a21.77,21.77,0,0,0,6.36-3,17.17,17.17,0,0,0-.88,2.61,20.83,20.83,0,0,0,9.07-5.07c.73-.73,1.39-1.46,2-2.17Z"/><path class="cls-2" d="M7.62,56.69A21.49,21.49,0,0,0,4.06,64a19,19,0,0,0,2.62-.88,21.61,21.61,0,0,0-3,6.36,21.61,21.61,0,0,0,6.36-3,19,19,0,0,0-.88,2.62,21.49,21.49,0,0,0,7.32-3.56Z"/><rect class="cls-3" x="9.5" y="52.3" width="7.37" height="15.28" rx="2.73" transform="translate(-38.51 26.87) rotate(-44.99)"/><rect class="cls-4" x="10.6" y="54.94" width="7.37" height="12.18" rx="2.73" transform="translate(-38.97 27.96) rotate(-44.99)"/><rect class="cls-5" x="9.62" y="55.34" width="7.36" height="9.42" rx="2.73" transform="translate(-38.57 26.99) rotate(-45)"/><path class="cls-6" d="M59.78,28,24.85,62.88l0,0a3.28,3.28,0,0,1-4.27-.33L10.17,52.14a3.3,3.3,0,0,1-.34-4.28l0,0L44.73,12.91l.45-.45C56.27,1.75,72.17.05,72.67,0h0c-.05.5-1.74,16.33-12.39,27.42Z"/><path class="cls-7" d="M55.32,23,20.14,58.17h0c-1.18,1.05-2.4,1.54-2.84,1.11l-3.88-3.89c-.44-.43.06-1.65,1.11-2.83h0L49.68,17.36A109.66,109.66,0,0,1,72.67,0h0A109.66,109.66,0,0,1,55.32,23Z"/><path class="cls-8" d="M21.81,50.87a3.58,3.58,0,1,1,5.06,0A3.57,3.57,0,0,1,21.81,50.87Zm4.28-4.28a2.48,2.48,0,1,0,0,3.5A2.48,2.48,0,0,0,26.09,46.59Z"/><path class="cls-9" d="M26.29,50.29a2.76,2.76,0,1,1,0-3.9A2.77,2.77,0,0,1,26.29,50.29Z"/><path class="cls-10" d="M26.12,48.84a.91.91,0,1,1,0-1.29A.92.92,0,0,1,26.12,48.84Z"/><path class="cls-8" d="M29.23,43.45a3.58,3.58,0,1,1,5.06,0A3.59,3.59,0,0,1,29.23,43.45Zm4.29-4.29a2.48,2.48,0,1,0,0,3.51A2.5,2.5,0,0,0,33.52,39.16Z"/><path class="cls-9" d="M33.71,42.86a2.75,2.75,0,1,1,0-3.89A2.74,2.74,0,0,1,33.71,42.86Z"/><path class="cls-10" d="M33.54,41.41a.89.89,0,0,1-1.28,0,.91.91,0,1,1,1.28,0Z"/><path class="cls-8" d="M36.66,36a3.58,3.58,0,1,1,5.06,0A3.57,3.57,0,0,1,36.66,36Zm4.28-4.28a2.48,2.48,0,1,0,0,3.5A2.48,2.48,0,0,0,40.94,31.74Z"/><path class="cls-9" d="M41.14,35.44a2.76,2.76,0,1,1,0-3.9A2.77,2.77,0,0,1,41.14,35.44Z"/><path class="cls-10" d="M41,34a.91.91,0,1,1,0-1.28A.89.89,0,0,1,41,34Z"/><path class="cls-8" d="M44.08,28.6a3.59,3.59,0,1,1,5.07,0A3.6,3.6,0,0,1,44.08,28.6Zm4.29-4.29a2.48,2.48,0,1,0,0,3.51A2.49,2.49,0,0,0,48.37,24.31Z"/><path class="cls-9" d="M48.56,28a2.75,2.75,0,1,1,0-3.89A2.74,2.74,0,0,1,48.56,28Z"/><path class="cls-10" d="M48.4,26.56a.92.92,0,0,1-1.29,0,.91.91,0,1,1,1.29-1.29A.92.92,0,0,1,48.4,26.56Z"/><path class="cls-5" d="M28.42,34.24,17.23,45.43a.65.65,0,0,1-.92,0,8.48,8.48,0,0,0-11.88,0,.59.59,0,0,1-.32.17.64.64,0,0,1-.61-.18h0a.66.66,0,0,1,0-.93L14.62,33.42a9.89,9.89,0,0,1,13.79-.12h0a.67.67,0,0,1,.2.46A.63.63,0,0,1,28.42,34.24Z"/><path class="cls-3" d="M28.14,34.53,17.23,45.43a.65.65,0,0,1-.92,0,8.48,8.48,0,0,0-11.88,0,.59.59,0,0,1-.32.17L14.75,35A9.88,9.88,0,0,1,28.14,34.53Z"/><path class="cls-5" d="M38.44,44.25,27.25,55.44a.66.66,0,0,0,0,.93,8.48,8.48,0,0,1,0,11.88.59.59,0,0,0-.17.32.67.67,0,0,0,.17.61h0a.66.66,0,0,0,.93,0L39.25,58.06a9.89,9.89,0,0,0,.13-13.8h0a.71.71,0,0,0-.46-.19A.67.67,0,0,0,38.44,44.25Z"/><path class="cls-3" d="M38.15,44.54l-10.9,10.9a.66.66,0,0,0,0,.93,8.48,8.48,0,0,1,0,11.88.59.59,0,0,0-.17.32L37.67,57.93A9.88,9.88,0,0,0,38.15,44.54Z"/><path class="cls-5" d="M42.94,19,35.86,26a.4.4,0,0,1-.58,0,5.38,5.38,0,0,0-7.52,0,.33.33,0,0,1-.2.11.41.41,0,0,1-.38-.11h0a.41.41,0,0,1,0-.59l7-7a6.25,6.25,0,0,1,8.72-.08h0a.38.38,0,0,1,.12.29A.42.42,0,0,1,42.94,19Z"/><path class="cls-3" d="M42.76,19.15,35.86,26a.4.4,0,0,1-.58,0,5.38,5.38,0,0,0-7.52,0,.33.33,0,0,1-.2.11l6.73-6.73A6.25,6.25,0,0,1,42.76,19.15Z"/><path class="cls-5" d="M53.56,29.59l-7.07,7.08a.4.4,0,0,0,0,.58,5.36,5.36,0,0,1,0,7.51.36.36,0,0,0-.11.21.42.42,0,0,0,.11.38h0a.41.41,0,0,0,.59,0l7-7a6.26,6.26,0,0,0,.08-8.72h0a.38.38,0,0,0-.29-.12A.42.42,0,0,0,53.56,29.59Z"/><path class="cls-3" d="M53.38,29.77l-6.89,6.9a.4.4,0,0,0,0,.58,5.36,5.36,0,0,1,0,7.51.36.36,0,0,0-.11.21l6.73-6.73A6.25,6.25,0,0,0,53.38,29.77Z"/><path class="cls-11" d="M60.29,27.43a13.39,13.39,0,0,1-2.54-2L47,14.63a13.44,13.44,0,0,1-1.77-2.17C56.27,1.75,72.17.05,72.67,0h0C72.63.51,70.94,16.34,60.29,27.43Z"/><path class="cls-12" d="M55.7,22.84a2.29,2.29,0,0,1-1.15-.61L50.33,18a2.41,2.41,0,0,1-.56-1A104.68,104.68,0,0,1,72.67,0h0A104.93,104.93,0,0,1,55.7,22.84Z"/></g></g></svg>